<?xml version="1.0" encoding="utf-8"?>
<!-- Generator: Adobe Illustrator 19.1.0, SVG Export Plug-In . SVG Version: 6.00 Build 0)  -->
<svg version="1.1" id="Layer_1" xmlns="http://www.w3.org/2000/svg" xmlns:xlink="http://www.w3.org/1999/xlink" x="0px" y="0px"
	 viewBox="0 0 1600 1000" style="enable-background:new 0 0 1600 1000;" xml:space="preserve">
<style type="text/css">
	.st0{fill:none;}
	.st1{fill:#010101;}
	.st2{fill:#FFFFFF;}
	.st3{opacity:0.83;fill:#E2E6ED;stroke:#E9E9EF;stroke-miterlimit:10;}
	.st4{fill:url(#SVGID_1_);}
	.st5{fill:#1D1D2A;}
	.st6{fill:#39C0C4;stroke:#00A79D;stroke-miterlimit:10;}
	.st7{fill:url(#SVGID_2_);}
</style>
<pattern  width="490.3" height="490.3" patternUnits="userSpaceOnUse" id="Unnamed_Pattern_2" viewBox="0 -490.3 490.3 490.3" style="overflow:visible;">
	<g>
		<polygon class="st0" points="0,-490.3 490.3,-490.3 490.3,0 0,0 		"/>
		<path class="st1" d="M180.7-490.3c0.3,0.5,0.7,1,0.9,1.6c0.2,0.4,0.2,1.2,0.1,1.3c-0.7,0.3-1.4,0.5-2.2,0.5
			c-0.3,0-0.8-0.6-0.9-0.9c-0.1-0.8,0-1.6,0.1-2.4C179.3-490.3,180-490.3,180.7-490.3z"/>
		<path class="st1" d="M490.3-102.7c-0.3-0.1-0.8-0.2-1-0.4c-0.3-0.5-0.5-1.1-0.7-1.6c0.5-0.1,1.1-0.3,1.7-0.4
			C490.3-104.3,490.3-103.5,490.3-102.7z"/>
		<path class="st1" d="M0-105.4c0.8-0.1,1.3,0.2,1.3,1.1c0,0.8-0.3,1.3-1.3,1.1C0-103.9,0-104.7,0-105.4z"/>
		<path class="st1" d="M122.8-163.4c0.9,0.5,1.7,1,2.6,1.5c0.1,0.1,0.2,0.3,0.2,0.4c0.1,1,0.2,1.9,0.1,2.9c0,1-1.8,2.1-2.9,1.9
			c-1.7-0.3-2.3-1.2-2.1-2.9c0-0.3-0.1-0.5-0.2-0.8c-0.1-0.6-0.6-1.3-0.4-1.7c0.3-0.5,1.1-0.7,1.7-1c0.2-0.1,0.4,0,0.6,0
			C122.7-163.2,122.7-163.3,122.8-163.4z"/>
		<path class="st1" d="M167.3-262.9c-1-0.6-1.7-1.1-2.4-1.6c-0.3-0.3-0.5-0.7-0.9-1c-0.9-0.6-0.9-1.5-0.3-2.1c0.4-0.4,1.4-0.5,2-0.4
			c0.6,0.1,1.4,0.4,1.8,0.9c0.7,0.8,1.2,1.8,1.6,2.8C169.1-264.1,168.1-263.5,167.3-262.9z"/>
		<path class="st1" d="M410.5-22.6c1.1,0,2.2,0,2.3,1.6c0,0.2,0.3,0.4,0.5,0.5c1,0.6,1.1,1.1,0.4,2.1c-0.4,0.6-1.6,0.9-2.2,0.3
			c-0.9-0.9-1.8-1.8-2.6-2.7c-0.3-0.3-0.5-1-0.4-1.2c0.2-0.3,0.8-0.4,1.2-0.6C410-22.7,410.3-22.6,410.5-22.6z"/>
		<path class="st1" d="M27.7-87.2c0.3-0.7,0.4-1.7,0.9-2c1.1-0.5,1.6,0.5,2.1,1.3c0.1,0.2,0.4,0.4,0.6,0.6c0.5,0.5,0.5,1.1-0.1,1.6
			c-0.2,0.1-0.4,0.3-0.5,0.5c-0.3,0.5-0.2,1.4-1.1,1c-0.8-0.3-1.8-0.7-1.6-2c0-0.3,0-0.6,0-1C27.8-87.1,27.8-87.1,27.7-87.2z"/>
		<path class="st1" d="M104.6-192.6c1.4-0.2,2.1,0.9,2.7,1.7c0.7,0.8,0,2.2-1.1,2.2c-1.2,0.1-2.5,0.4-2.6-1.5c0-0.1,0-0.2-0.1-0.2
			c-0.5-0.4-1.2-0.9-0.6-1.6C103.3-192.4,104-192.4,104.6-192.6z"/>
		<path class="st1" d="M424-244.2c1-0.9,2.2-0.6,2.8,0.7c0.5,1.1-0.8,1.3-1.2,2c-0.1,0.2-0.9,0.2-1.1-0.1c-0.7-0.7-1.3-1.4-1.9-2.2
			c-0.1-0.2,0-0.5,0.1-0.8C423-244.4,423.4-244.3,424-244.2z"/>
		<path class="st1" d="M276.1-331.1c-0.3,0.4-0.8,1.2-1.5,1.5c-0.7,0.4-1-0.4-1-1c-0.1-0.8,0.1-1.5-0.8-2c-0.2-0.1-0.2-0.7-0.1-0.9
			c0.2-0.3,0.5-0.5,0.8-0.5C274.5-334,276.1-332.6,276.1-331.1z"/>
		<path class="st1" d="M40.8-440.7c1,0.8,2,1.4,2.9,2.1c0.2,0.1,0,1-0.2,1c-0.6,0.1-1.3,0.2-1.8,0.1c-0.6-0.1-1.2-0.5-1.8-0.8
			c-0.3-0.2-0.8-0.9-0.7-1.1C39.5-439.9,40.1-440.2,40.8-440.7z"/>
		<path class="st1" d="M80.3-430.2c0.5,0.4,1.3,0.8,1.4,1.3c0.1,1-0.9,1.8-1.9,1.7c-1,0-1.3-0.7-1.3-1.5
			C78.5-429.8,79.2-430,80.3-430.2z"/>
		<path class="st1" d="M211.7-380.6c1-0.7,2.1-1.1,3.3-0.8c0.3,0.1,0.6,0.8,0.6,1.2c0,0.3-0.6,0.8-0.9,0.7c-1-0.2-2-0.5-3-0.8
			C211.7-380.4,211.7-380.5,211.7-380.6z"/>
		<path class="st1" d="M262.7-238.3c0.6,0.5,1.3,1.2,1.3,1.2c-0.5,0.7-1,1.2-1.6,1.8c-0.5-0.6-1-1.2-1.5-1.7
			C261.4-237.4,261.9-237.8,262.7-238.3z"/>
		<path class="st1" d="M115.8-109c0.6,0.6,1.2,1,1.3,1.4c0.2,0.7-0.8,1.8-1.4,1.7c-1-0.1-1.3-0.9-1.2-1.6
			C114.5-107.9,115.2-108.3,115.8-109z"/>
		<path class="st1" d="M6.3-485.9c0.2-0.4,0.3-1.1,0.7-1.5c0.2-0.2,1.1,0,1.5,0.3c0.6,0.4,1.3,0.9,0.8,1.8C9.2-485,8.5-485,8.1-485
			C7.5-485.2,7-485.5,6.3-485.9z"/>
		<path class="st1" d="M253.2-242c0.3,0,0.7-0.1,1,0c0.3,0.2,0.8,0.6,0.8,0.9c0,0.3-0.4,0.8-0.8,0.8c-0.5,0.1-1.2,0.2-1.7,0
			c-0.4-0.1-1-0.5-1.1-0.8c-0.2-0.7,0.4-0.9,1.1-1C252.8-242,253-242,253.2-242C253.2-242,253.2-242,253.2-242z"/>
		<path class="st1" d="M246.4-348.6c-0.3,0.4-0.6,1-1.1,1.1c-0.8,0.2-1.1-0.5-1.2-1.2c0-0.3-0.1-0.6,0-0.8c0.3-0.5,0.6-0.9,1-1.4
			c0.3,0.4,0.7,0.9,0.9,1.3c0.1,0.2,0.1,0.5,0.1,0.7C246.2-348.7,246.3-348.7,246.4-348.6z"/>
		<path class="st1" d="M49.4-431.2c0,0.7-2.2,2.2-2.8,1.9c-0.2-0.1-0.5-0.4-0.5-0.5c0.5-0.7,0.9-1.5,1.5-2c0.3-0.2,1,0.1,1.5,0.3
			C49.3-431.6,49.4-431.3,49.4-431.2z"/>
		<path class="st1" d="M49.9-426.4c-0.1,1.1-0.2,1.8-0.4,2.5c0,0.1-0.4,0.3-0.6,0.3c-0.2,0-0.3-0.3-0.4-0.5
			c-0.2-0.5-0.4-0.9-0.6-1.4c-0.1-0.5-0.3-1-0.2-1.5c0.1-0.2,0.8-0.5,1.1-0.4C49.3-427.1,49.7-426.6,49.9-426.4z"/>
		<path class="st1" d="M164.1-260.3c-0.2,0.1-0.7,0.7-0.8,0.7c-0.7-0.5-1.2-1.1-1.8-1.7c0.4-0.3,0.8-0.8,1.2-0.8
			C163.6-262.3,164.1-261.7,164.1-260.3z"/>
		<path class="st1" d="M136-395.9c-1.2,0-2-0.8-1.9-1.7c0-0.3,0.5-0.6,0.7-0.9c0.6,0.6,1.3,1.2,1.9,1.8
			C136.8-396.6,136.2-396,136-395.9z"/>
		<path class="st1" d="M285.3-195.6c0.7,0.7,1.4,1.2,2,1.9c0.1,0.1-0.1,0.8-0.3,0.9c-0.3,0.1-0.8,0-1.1-0.1
			c-0.4-0.2-0.7-0.5-1.1-0.9c-0.2-0.2-0.6-0.6-0.5-0.8C284.5-195,284.9-195.2,285.3-195.6z"/>
		<path class="st1" d="M18.8-483.2c-0.1,2.2-0.9,2.9-2.3,2.3c-0.6-0.3-0.9-0.9-0.3-1.3C16.9-482.7,17.8-482.8,18.8-483.2z"/>
		<path class="st1" d="M408.5-14.5c-1.1-0.2-1.6-0.6-1.5-1.5c0.1-0.4,0.6-0.8,0.9-1.2c0.6,0.5,1.2,1,1.7,1.5
			C409.3-15.3,408.9-14.9,408.5-14.5z"/>
		<path class="st1" d="M397.1-210.6c0.2,0.2,0.6,0.5,0.8,0.9c0.2,0.5-1,1.6-1.9,1.6c-0.3,0-0.7-0.4-0.8-0.6
			C395.1-209.6,396.1-210.6,397.1-210.6z"/>
		<path class="st1" d="M115.8-226.8c0.5,0.6,1,1.1,1.4,1.7c0.2,0.3,0.1,0.8,0,1.1c-0.1,0.1-0.8,0.2-0.9,0.1
			c-0.5-0.4-0.9-0.9-1.1-1.5c-0.1-0.4,0.1-0.9,0.2-1.3C115.5-226.7,115.7-226.8,115.8-226.8z"/>
		<path class="st1" d="M459.3-133.7c-0.7-0.6-1.2-1-1.7-1.4c0.4-0.3,0.7-0.9,1.1-0.9c0.7,0,1.6,0,1.6,1
			C460.2-134.6,459.7-134.3,459.3-133.7z"/>
		<path class="st1" d="M117.3-285.9c0.6,0.6,1.2,1,1.2,1.4c0.1,0.9-0.7,0.9-1.4,0.9c-0.7,0-1.3-0.2-1.2-1
			C116.1-285,116.7-285.3,117.3-285.9z"/>
		<path class="st1" d="M203.8-377.5c0.7,0.8,1.2,1.3,1.6,1.9c0,0.1-0.9,0.9-0.9,0.8c-0.5-0.4-1-0.9-1.4-1.4
			C203-376.4,203.5-376.8,203.8-377.5z"/>
		<path class="st1" d="M385.1-331.6c-0.7,0.6-1.1,1-1.5,1.3c-0.3-0.4-0.8-0.9-0.9-1.3c0-0.4,0.5-0.8,0.8-1.2
			C384-332.5,384.4-332.2,385.1-331.6z"/>
		<path class="st1" d="M383.8-301.4c-0.5-0.6-0.7-0.9-1-1.3c0.4-0.3,0.8-0.9,1.2-0.9c0.4,0,0.8,0.6,1.2,0.9
			C384.7-302.3,384.4-302,383.8-301.4z"/>
		<path class="st1" d="M381.9-151.6c-0.6,0.5-0.9,0.9-1.3,1.2c-0.3-0.4-0.8-0.8-0.8-1.2c0-0.4,0.5-0.8,0.8-1.2
			C380.9-152.5,381.3-152.2,381.9-151.6z"/>
		<path class="st1" d="M287.8-309.4c-0.5,0.5-0.9,0.9-1.2,1.2c-0.3-0.4-0.8-0.8-0.8-1.2c0-0.4,0.5-0.7,0.8-1.1
			C286.9-310.2,287.3-309.9,287.8-309.4z"/>
		<path class="st1" d="M362.6-352c-0.6,0.5-0.9,0.8-1.3,1.1c-0.3-0.5-0.7-0.9-0.8-1.4c0-0.2,0.6-0.8,0.9-0.8
			C361.8-353,362.1-352.5,362.6-352z"/>
		<path class="st1" d="M73.5-99.7c-0.6,0.5-0.9,1-1.2,1c-0.4-0.1-0.9-0.7-0.9-1c0.1-0.4,0.6-0.8,0.9-1.2
			C72.7-100.6,73-100.3,73.5-99.7z"/>
		<path class="st1" d="M361.3-469.2c-0.6-0.6-0.9-0.9-1.3-1.3c0.4-0.3,0.7-0.9,1.1-0.8c0.4,0,0.8,0.5,1.1,0.9
			C362.3-470.3,361.8-469.8,361.3-469.2z"/>
		<path class="st1" d="M123.3-190.4c-0.5-0.5-0.8-0.9-1.1-1.2c0.4-0.3,0.8-0.8,1.1-0.8c0.4,0,0.8,0.5,1.1,0.8
			C124.1-191.2,123.8-190.9,123.3-190.4z"/>
		<path class="st1" d="M222.6-414.7c-0.5-0.6-0.8-0.9-1.1-1.3c0.4-0.3,0.8-0.8,1.2-0.8c0.3,0,0.9,0.6,0.9,0.9
			C223.7-415.5,223.1-415.2,222.6-414.7z"/>
		<path class="st1" d="M177.6-392.5c-0.4-0.6-0.7-0.9-0.9-1.3c0.4-0.3,0.8-0.8,1.3-0.8c0.3,0,0.7,0.6,1,0.9
			C178.6-393.3,178.2-393,177.6-392.5z"/>
		<path class="st1" d="M111.8-124.5c-0.5-0.6-0.9-1-0.9-1.3c0-0.3,0.6-0.8,0.9-0.8c0.4,0,0.8,0.5,1.1,0.8
			C112.6-125.5,112.3-125.2,111.8-124.5z"/>
		<path class="st1" d="M226.3-323.9c-0.5,0.6-1,1.2-1.4,1.7c-0.3-0.2-0.8-0.5-0.8-0.7c-0.1-1.3,1.2-0.9,1.8-1.4
			C226.1-324.1,226.2-324,226.3-323.9z"/>
		<path class="st1" d="M337.3-482.5c-0.4-0.5-0.9-1-0.8-1.2c0.1-0.3,0.7-0.8,1-0.8c0.4,0,0.8,0.5,1.1,0.8
			C338.2-483.3,337.8-483,337.3-482.5z"/>
		<path class="st1" d="M368.7-240c-0.6,0.5-0.9,1-1.3,1c-0.3,0-0.8-0.6-0.8-0.9c0-0.4,0.5-0.9,0.8-1
			C367.7-241,368.1-240.5,368.7-240z"/>
		<path class="st1" d="M224-473.3c-0.5,0.5-0.8,0.8-1.2,1.2c-0.3-0.3-0.7-0.7-0.7-1c0-0.4,0.5-0.8,0.7-1.1
			C223.2-474,223.5-473.7,224-473.3z"/>
		<path class="st1" d="M230.2-35.2c0.2,0.4,0.6,0.8,0.6,1.2c0,0.3-0.5,0.6-0.8,1c-0.3-0.3-0.8-0.6-0.8-0.9c0-0.4,0.4-0.8,0.6-1.2
			C229.9-35.2,230-35.2,230.2-35.2z"/>
		<path class="st1" d="M482-294.9c-0.6,0.5-0.9,1-1.3,1c-0.3,0-0.6-0.5-0.9-0.8c0.4-0.3,0.7-0.7,1.1-0.9
			C481-295.6,481.4-295.2,482-294.9z"/>
		<path class="st1" d="M210.1-109.6c-0.7,0.4-1.1,0.8-1.4,0.8c-0.3-0.1-0.8-0.6-0.8-0.9c0-0.3,0.5-0.8,0.9-0.8
			C209.1-110.7,209.4-110.2,210.1-109.6z"/>
		<path class="st1" d="M255-405.8c-0.2-0.4-0.6-0.7-0.6-1c0-0.3,0.5-0.6,0.8-1c0.3,0.3,0.8,0.6,0.8,0.9c0.1,0.3-0.4,0.7-0.6,1.1
			C255.3-405.9,255.2-405.9,255-405.8z"/>
		<path class="st1" d="M225.8-245.8c-0.4-0.7-0.9-1.1-0.9-1.4c0.1-0.3,0.6-0.8,0.9-0.8c0.3,0,0.8,0.5,0.8,0.9
			C226.8-246.8,226.3-246.5,225.8-245.8z"/>
		<path class="st1" d="M240-436.9c-0.4-0.7-0.8-1.1-0.7-1.4c0-0.3,0.5-0.5,0.8-0.8c0.3,0.3,0.7,0.6,0.8,1
			C240.9-437.8,240.5-437.5,240-436.9z"/>
		<path class="st1" d="M468.5-226.2c0.4,0.7,0.8,1,0.8,1.4c0,0.3-0.6,0.8-0.8,0.8c-0.4-0.1-0.8-0.5-0.9-0.9
			C467.6-225.2,468.1-225.6,468.5-226.2z"/>
		<path class="st1" d="M193.8-249.1c-0.6,0.4-1,0.8-1.3,0.7c-0.3-0.1-0.6-0.5-0.8-0.8c0.3-0.3,0.6-0.7,1-0.8
			C192.9-250,193.2-249.5,193.8-249.1z"/>
		<path class="st1" d="M422.3-224.8c-0.7,0.4-1.1,0.7-1.4,0.7c-0.3,0-0.8-0.7-0.7-0.8c0.1-0.3,0.6-0.7,0.9-0.8
			C421.4-225.7,421.7-225.3,422.3-224.8z"/>
		<path class="st1" d="M197.6-361.2c-0.4,0.2-0.7,0.6-1,0.6c-0.3,0-0.8-0.5-0.8-0.8c0-0.3,0.4-0.8,0.7-0.9c0.3,0,0.7,0.3,1.1,0.6
			C197.6-361.5,197.6-361.3,197.6-361.2z"/>
		<path class="st1" d="M146.3-155.1c-0.6,0.4-1,0.8-1.2,0.8c-0.4-0.1-0.6-0.5-0.9-0.8c0.3-0.3,0.6-0.7,1-0.8
			C145.4-156,145.8-155.6,146.3-155.1z"/>
		<path class="st1" d="M109.7-187.3c-0.3,0.2-0.7,0.6-1,0.6c-0.3,0-0.8-0.5-0.8-0.8c0-0.3,0.4-0.8,0.7-0.8c0.3,0,0.7,0.3,1.1,0.5
			C109.7-187.6,109.7-187.5,109.7-187.3z"/>
		<path class="st1" d="M202-116.6c-0.7,0.4-1.1,0.8-1.3,0.7c-0.3-0.1-0.7-0.6-0.8-0.9c0-0.2,0.6-0.7,0.8-0.7
			C201-117.6,201.3-117.1,202-116.6z"/>
		<path class="st1" d="M247.5-113.6c-0.7,0.4-1.1,0.8-1.4,0.8c-0.3,0-0.8-0.6-0.7-0.8c0.1-0.3,0.5-0.7,0.9-0.8
			C246.5-114.6,246.8-114.1,247.5-113.6z"/>
		<path class="st1" d="M372.8-110.7c-0.7,0.5-1,0.9-1.4,0.9c-0.3,0-0.5-0.5-0.8-0.8c0.3-0.3,0.6-0.7,1-0.8
			C371.8-111.6,372.2-111.2,372.8-110.7z"/>
		<path class="st1" d="M36.1-104.6c-0.6,0.4-1,0.8-1.2,0.8c-0.4-0.1-0.6-0.5-1-0.8c0.3-0.3,0.6-0.7,1-0.8
			C35.2-105.5,35.5-105,36.1-104.6z"/>
		<path class="st1" d="M289.6-33.6c-0.4-0.6-0.9-0.9-0.8-1.2c0.1-0.4,0.5-0.6,0.8-1c0.3,0.3,0.7,0.6,0.8,0.9
			C290.5-34.6,290-34.2,289.6-33.6z"/>
		<path class="st1" d="M318.2-345.1c-0.7,0.4-1.1,0.8-1.3,0.7c-0.3-0.1-0.6-0.6-0.8-0.9c0.3-0.3,0.6-0.7,0.9-0.7
			C317.3-346,317.6-345.6,318.2-345.1z"/>
		<path class="st1" d="M154.2-343.4c0.4,0.6,0.9,0.9,0.8,1.2c-0.1,0.4-0.5,0.6-0.8,0.9c-0.3-0.3-0.7-0.6-0.8-0.9
			C153.3-342.5,153.7-342.8,154.2-343.4z"/>
		<path class="st1" d="M48-319.6c-0.4-0.7-0.8-1.1-0.8-1.4c0-0.3,0.5-0.5,0.8-0.8c0.3,0.3,0.7,0.6,0.8,1
			C48.9-320.6,48.4-320.2,48-319.6z"/>
		<path class="st1" d="M114.6-222.1c0.4,0.6,0.9,0.9,0.9,1.3c0,0.3-0.5,0.5-0.8,0.8c-0.3-0.3-0.7-0.6-0.8-1
			C113.8-221.2,114.3-221.6,114.6-222.1z"/>
		<path class="st1" d="M412.8-353c-0.4-0.6-0.8-1-0.7-1.3c0.1-0.3,0.6-0.6,0.9-0.8c0.2,0.3,0.7,0.6,0.7,0.9
			C413.7-353.9,413.3-353.6,412.8-353z"/>
		<path class="st1" d="M423-147.8c-0.4-0.7-0.9-1-0.8-1.3c0-0.3,0.5-0.6,0.8-0.9c0.3,0.3,0.8,0.6,0.8,0.9
			C423.9-148.8,423.5-148.4,423-147.8z"/>
		<path class="st1" d="M140-86.2c-0.4,0.2-0.7,0.6-1.1,0.6c-0.3,0-0.7-0.5-0.7-0.8c0-0.3,0.5-0.8,0.8-0.8c0.3,0,0.7,0.4,1.1,0.6
			C140-86.5,140-86.3,140-86.2z"/>
		<path class="st1" d="M363.4-38.7c-0.3,0.2-0.7,0.7-1,0.7c-0.3,0-0.8-0.5-0.8-0.8c0-0.3,0.4-0.8,0.7-0.9c0.3,0,0.7,0.3,1.1,0.5
			C363.4-39.1,363.4-38.9,363.4-38.7z"/>
		<path class="st1" d="M482-304.6c-0.7,0.4-1.1,0.8-1.3,0.7c-0.3-0.1-0.6-0.6-0.8-0.9c0.3-0.3,0.6-0.7,0.9-0.7
			C481-305.6,481.3-305.1,482-304.6z"/>
		<path class="st1" d="M484.6-208.5c-0.4-0.6-0.8-1-0.7-1.3c0-0.3,0.5-0.6,0.8-0.8c0.3,0.3,0.7,0.6,0.8,0.9
			C485.5-209.4,485.1-209.1,484.6-208.5z"/>
		<path class="st1" d="M284.5-183.2c-0.4-0.6-0.9-1-0.8-1.2c0.1-0.3,0.6-0.6,0.9-0.9c0.3,0.3,0.7,0.6,0.7,0.9
			C285.4-184.1,285-183.8,284.5-183.2z"/>
		<path class="st1" d="M246.1-432.9c0.6,0.7,1.1,1.2,1.5,1.8c-0.2,0.1-0.5,0.4-0.5,0.4c-0.5-0.4-1.1-0.9-1.5-1.4
			C245.6-432.2,245.9-432.5,246.1-432.9z"/>
		<path class="st1" d="M73.5-440.9c-0.3,0.1-0.7,0.4-0.9,0.4c-0.3-0.1-0.6-0.5-0.9-0.7c0.3-0.2,0.6-0.7,0.8-0.7
			c0.4,0,0.7,0.4,1.1,0.6C73.5-441.1,73.5-441,73.5-440.9z"/>
		<path class="st1" d="M345.3-253.5c0.4,0.6,0.8,1,0.7,1.3c-0.1,0.3-0.6,0.7-0.8,0.7c-0.3,0-0.7-0.5-0.7-0.8
			C344.4-252.5,344.8-252.9,345.3-253.5z"/>
		<path class="st1" d="M83.5-417.2c0.4,0.6,0.8,1,0.7,1.3c-0.1,0.3-0.6,0.6-0.9,0.8c-0.2-0.3-0.7-0.6-0.7-0.9
			C82.6-416.3,83-416.6,83.5-417.2z"/>
		<path class="st1" d="M476.9-279.4c-0.7,0.4-1.1,0.8-1.3,0.7c-0.3-0.1-0.6-0.6-0.7-0.9c0-0.2,0.5-0.7,0.8-0.7
			C475.9-280.2,476.2-279.8,476.9-279.4z"/>
		<path class="st1" d="M214.1-387.6c-0.6,0.4-1,0.8-1.3,0.7c-0.3-0.1-0.8-0.5-0.7-0.8c0-0.3,0.5-0.7,0.8-0.8
			C213.1-388.5,213.4-388,214.1-387.6z"/>
		<path class="st1" d="M53.1-14.4c-0.4-0.7-0.8-1-0.8-1.3c0.1-0.3,0.5-0.7,0.8-0.7c0.2,0,0.7,0.5,0.7,0.7
			C53.8-15.4,53.5-15,53.1-14.4z"/>
		<path class="st1" d="M293.9-164.3c-0.7,0.4-1,0.8-1.3,0.8c-0.3-0.1-0.7-0.5-0.7-0.8c0-0.2,0.5-0.7,0.7-0.7
			C292.9-165,293.3-164.7,293.9-164.3z"/>
		<path class="st1" d="M41.7-455.2c-0.1-0.4-0.4-0.8-0.3-1.1c0.1-0.3,0.5-0.8,0.8-0.8c0.3,0,0.6,0.4,0.9,0.7
			c-0.2,0.3-0.5,0.6-0.7,0.8C42.1-455.4,41.9-455.3,41.7-455.2z"/>
		<path class="st1" d="M412-370.4c-0.5,0.3-0.8,0.7-1.1,0.7c-0.3,0-0.5-0.5-0.8-0.7c0.3-0.3,0.5-0.7,0.9-0.8
			C411.2-371.2,411.5-370.8,412-370.4z"/>
		<path class="st1" d="M438.3-4.5c-0.6,0.3-0.9,0.7-1.2,0.7c-0.3,0-0.5-0.5-0.7-0.7c0.3-0.3,0.5-0.7,0.9-0.7
			C437.5-5.3,437.8-4.9,438.3-4.5z"/>
		<path class="st1" d="M365.5-261.3c-0.5,0.4-0.8,0.8-1,0.7c-0.3-0.1-0.6-0.5-0.8-0.8c0.3-0.2,0.5-0.7,0.8-0.7
			C364.7-262,365-261.7,365.5-261.3z"/>
		<path class="st1" d="M243-467.7c-0.2-0.5-0.5-0.9-0.4-0.9c0.5-0.5,1-0.9,1.5-1.3c0,0,0.4,0.3,0.3,0.4
			C244.1-469,243.6-468.4,243-467.7z"/>
		<path class="st1" d="M239.1-397.7c-0.5,0.3-0.9,0.7-1.1,0.7c-0.3-0.1-0.5-0.5-0.8-0.8c0.3-0.2,0.5-0.6,0.8-0.6
			C238.4-398.5,238.7-398.1,239.1-397.7z"/>
		<path class="st1" d="M43-423.1c0.3,0.5,0.7,0.9,0.6,1.2c0,0.3-0.5,0.5-0.8,0.7c-0.2-0.3-0.6-0.5-0.7-0.8
			C42.2-422.4,42.6-422.6,43-423.1z"/>
		<path class="st1" d="M127.8-355.9c-0.4,0.3-0.7,0.6-1,0.8c-0.2-0.3-0.6-0.7-0.6-1c0-0.2,0.5-0.5,0.7-0.7
			C127.2-356.6,127.4-356.3,127.8-355.9z"/>
		<path class="st1" d="M51-88.4c-0.3-0.5-0.7-0.8-0.7-1.1c0-0.3,0.5-0.5,0.7-0.7c0.2,0.3,0.7,0.5,0.7,0.8
			C51.8-89.2,51.4-88.9,51-88.4z"/>
		<path class="st1" d="M322.9-466.2c0.3,0.6,0.6,0.9,0.6,1.2c0,0.3-0.4,0.6-0.6,0.9c-0.2-0.3-0.6-0.5-0.6-0.8
			C322.4-465.2,322.6-465.6,322.9-466.2z"/>
		<path class="st1" d="M409.9-276.4c-0.4-0.5-0.7-0.8-0.8-1.1c0-0.2,0.4-0.7,0.6-0.7c0.3,0,0.7,0.4,0.8,0.6
			C410.6-277.3,410.3-276.9,409.9-276.4z"/>
		<path class="st1" d="M78.4-218.7c-0.4-0.5-0.7-0.8-0.7-1.1c0-0.3,0.4-0.5,0.7-0.8c0.2,0.2,0.6,0.5,0.6,0.7
			C79-219.6,78.7-219.2,78.4-218.7z"/>
		<path class="st1" d="M80.3-204.7c0.3,0.4,0.7,0.7,0.7,0.9c-0.1,0.3-0.5,0.5-0.7,0.8c-0.2-0.2-0.6-0.5-0.6-0.7
			C79.7-203.9,80-204.2,80.3-204.7z"/>
		<path class="st1" d="M238.1-442.3c0.3,0.5,0.6,0.8,0.6,1.1c0,0.2-0.5,0.7-0.7,0.6c-0.3-0.1-0.6-0.4-0.7-0.7
			C237.3-441.5,237.7-441.8,238.1-442.3z"/>
		<path class="st1" d="M370.5-327c-0.5,0.4-0.8,0.8-1,0.7c-0.3-0.1-0.6-0.4-0.7-0.7c0-0.1,0.4-0.7,0.6-0.7
			C369.7-327.7,370-327.3,370.5-327z"/>
		<path class="st1" d="M90.5-236.6c0.4-0.4,0.7-0.7,1.1-1.1c0.2,0.2,0.5,0.5,0.5,0.5c-0.3,0.4-0.7,0.7-1.1,1.1
			C90.8-236.2,90.6-236.4,90.5-236.6z"/>
		<path class="st1" d="M221.2-486.8c-0.3-0.3-0.7-0.6-1-0.9c0.2-0.2,0.5-0.4,0.7-0.6c0.3,0.4,0.6,0.7,0.9,1.1
			C221.6-487.1,221.4-487,221.2-486.8z"/>
		<path class="st1" d="M436.1-154.2c-0.4,0.3-0.7,0.7-0.9,0.7c-0.3-0.1-0.5-0.4-0.8-0.7c0.3-0.3,0.5-0.6,0.8-0.7
			C435.4-154.9,435.7-154.5,436.1-154.2z"/>
		<path class="st1" d="M235.1-215.7c-0.6,0.3-0.9,0.6-1.2,0.6c-0.2,0-0.6-0.5-0.6-0.7c0-0.2,0.4-0.6,0.7-0.6
			C234.3-216.5,234.6-216.1,235.1-215.7z"/>
		<path class="st1" d="M325.5-183.4c-0.6,0.2-0.9,0.5-1.2,0.4c-0.3,0-0.5-0.4-0.7-0.6c0.3-0.2,0.6-0.4,0.9-0.4
			C324.8-184,325-183.7,325.5-183.4z"/>
		<path class="st1" d="M160.2-305.8c0.3,0.5,0.7,0.7,0.6,1c0,0.3-0.4,0.5-0.6,0.7c-0.3-0.3-0.6-0.5-0.7-0.8
			C159.5-305,159.9-305.3,160.2-305.8z"/>
		<path class="st1" d="M244.1-475.6c-0.5,0.3-0.8,0.7-1,0.6c-0.3-0.1-0.5-0.5-0.7-0.7c0.3-0.2,0.5-0.6,0.8-0.6
			C243.4-476.3,243.7-475.9,244.1-475.6z"/>
		<path class="st1" d="M61.1-19.7c0.3,0.4,0.7,0.7,0.7,0.9c0,0.3-0.4,0.5-0.6,0.8c-0.3-0.2-0.7-0.4-0.7-0.7
			C60.4-18.9,60.8-19.2,61.1-19.7z"/>
		<path class="st1" d="M231.9-481.7c0.4,0.4,0.8,0.7,0.7,0.9c-0.1,0.3-0.4,0.5-0.7,0.8c-0.2-0.2-0.6-0.4-0.7-0.7
			C231.3-480.9,231.6-481.2,231.9-481.7z"/>
		<path class="st1" d="M37.9-26.9c-0.4,0.4-0.7,0.8-0.9,0.7c-0.3-0.1-0.5-0.4-0.8-0.7c0.2-0.2,0.4-0.6,0.7-0.7
			C37.1-27.5,37.4-27.1,37.9-26.9z"/>
		<path class="st1" d="M444.3-189.5c0.3,0.5,0.6,0.8,0.6,1c-0.1,0.3-0.5,0.5-0.8,0.7c-0.2-0.3-0.5-0.5-0.5-0.8
			C443.6-188.8,444-189.1,444.3-189.5z"/>
		<path class="st1" d="M256.2-283.6c-0.3-0.5-0.6-0.8-0.6-1c0-0.3,0.4-0.4,0.7-0.7c0.2,0.2,0.6,0.5,0.6,0.7
			C256.9-284.3,256.5-284,256.2-283.6z"/>
		<path class="st1" d="M219.8-75.4c-0.3-0.4-0.6-0.7-0.6-1c0-0.2,0.5-0.7,0.6-0.6c0.3,0.1,0.6,0.4,0.7,0.7
			C220.6-76.1,220.2-75.8,219.8-75.4z"/>
		<path class="st1" d="M474.5-55.9c-0.4,0.2-0.7,0.5-0.8,0.5c-0.3-0.2-0.5-0.5-0.8-0.7c0.2-0.2,0.5-0.6,0.7-0.5
			C473.9-56.6,474.1-56.3,474.5-55.9z"/>
		<path class="st1" d="M47.3-50.3c-0.4,0.7-0.5,1.1-0.8,1.5c-0.2,0.2-0.6,0.1-0.9,0.1c0.1-0.3,0-0.7,0.2-0.8
			C46.1-49.8,46.6-49.9,47.3-50.3z"/>
		<path class="st1" d="M24.7-46c-0.3-0.5-0.6-0.7-0.6-1c0-0.3,0.4-0.5,0.6-0.7c0.2,0.3,0.6,0.5,0.7,0.8C25.5-46.7,25.1-46.4,24.7-46
			z"/>
		<path class="st1" d="M158.2-194.7c-0.4,0.4-0.7,0.7-0.9,0.7c-0.3,0-0.7-0.4-0.7-0.6c0-0.2,0.4-0.6,0.6-0.7
			C157.4-195.3,157.7-194.9,158.2-194.7z"/>
		<path class="st1" d="M398.7-1.5c-0.5,0.3-0.8,0.6-1,0.6c-0.2,0-0.6-0.4-0.6-0.6c0.1-0.3,0.4-0.6,0.6-0.7
			C398-2.2,398.3-1.8,398.7-1.5z"/>
		<path class="st1" d="M176.6-486.6c0.3,0.4,0.5,0.7,0.7,0.9c-0.3,0.2-0.5,0.5-0.8,0.5c-0.2,0-0.6-0.4-0.6-0.6
			C175.9-486,176.3-486.2,176.6-486.6z"/>
		<path class="st1" d="M56.1-287.6c-0.5,0.3-0.8,0.6-1,0.6c-0.2,0-0.5-0.4-0.6-0.7c0-0.1,0.4-0.5,0.6-0.5
			C55.3-288.2,55.6-287.9,56.1-287.6z"/>
		<path class="st1" d="M25.8-336.1c-0.5,0.3-0.8,0.6-1,0.6c-0.2-0.1-0.5-0.4-0.6-0.7c0-0.1,0.4-0.5,0.6-0.5
			C25-336.7,25.3-336.4,25.8-336.1z"/>
		<path class="st1" d="M2.5-212.8c0.4,0.5,0.7,0.7,0.7,1c0,0.2-0.4,0.7-0.5,0.6c-0.3,0-0.7-0.3-0.7-0.6
			C1.8-211.9,2.2-212.2,2.5-212.8z"/>
		<path class="st1" d="M484.7-212.9c-0.5,0.4-0.7,0.7-0.9,0.7c-0.2,0-0.6-0.4-0.7-0.6c0-0.2,0.3-0.6,0.5-0.6
			C483.9-213.4,484.1-213.1,484.7-212.9z"/>
		<path class="st1" d="M394.7-452.4c-0.3-0.5-0.6-0.8-0.6-1c0-0.2,0.4-0.6,0.7-0.6c0.2,0,0.6,0.4,0.6,0.7
			C395.4-453.1,395-452.8,394.7-452.4z"/>
		<path class="st1" d="M294.6-75.3c-0.5,0.3-0.8,0.7-1,0.6c-0.2,0-0.5-0.4-0.6-0.7c0-0.1,0.4-0.6,0.6-0.6
			C293.9-75.9,294.1-75.6,294.6-75.3z"/>
		<path class="st1" d="M52-475.4c-0.3-0.5-0.6-0.8-0.5-1.1c0-0.3,0.4-0.5,0.6-0.7c0.2,0.2,0.5,0.5,0.6,0.7
			C52.7-476.2,52.3-475.9,52-475.4z"/>
		<path class="st1" d="M456.3-342.1c0.4,0.4,0.7,0.6,0.7,0.8c0,0.3-0.3,0.6-0.6,0.7c-0.1,0.1-0.6-0.3-0.6-0.5
			C455.8-341.3,456-341.6,456.3-342.1z"/>
		<path class="st1" d="M436.1-308.8c-0.5,0.3-0.8,0.6-1,0.6c-0.2,0-0.6-0.5-0.5-0.6c0.1-0.3,0.4-0.6,0.7-0.6
			C435.4-309.4,435.7-309.1,436.1-308.8z"/>
		<path class="st1" d="M214.7-397.7c-0.5,0.3-0.7,0.6-0.9,0.6c-0.3-0.1-0.4-0.4-0.7-0.6c0.2-0.2,0.4-0.6,0.6-0.5
			C214-398.3,214.3-398,214.7-397.7z"/>
		<path class="st1" d="M388.7-282.6c-0.3-0.5-0.7-0.8-0.6-1c0-0.2,0.4-0.5,0.7-0.6c0.1,0,0.6,0.4,0.6,0.6
			C389.3-283.3,389-283,388.7-282.6z"/>
		<path class="st1" d="M381.5-217.9c-0.3-0.5-0.6-0.8-0.6-1c0.1-0.2,0.5-0.5,0.7-0.5c0.2,0,0.5,0.4,0.5,0.6
			C382.1-218.6,381.8-218.3,381.5-217.9z"/>
	</g>
</pattern>
<pattern  width="490.3" height="490.3" patternUnits="userSpaceOnUse" id="Unnamed_Pattern_8" viewBox="0 -490.3 490.3 490.3" style="overflow:visible;">
	<g>
		<polygon class="st0" points="0,-490.3 490.3,-490.3 490.3,0 0,0 		"/>
		<path class="st2" d="M180.7-490.3c0.3,0.5,0.7,1,0.9,1.6c0.2,0.4,0.2,1.2,0.1,1.3c-0.7,0.3-1.4,0.5-2.2,0.5
			c-0.3,0-0.8-0.6-0.9-0.9c-0.1-0.8,0-1.6,0.1-2.4C179.3-490.3,180-490.3,180.7-490.3z"/>
		<path class="st2" d="M490.3-102.7c-0.3-0.1-0.8-0.2-1-0.4c-0.3-0.5-0.5-1.1-0.7-1.6c0.5-0.1,1.1-0.3,1.7-0.4
			C490.3-104.3,490.3-103.5,490.3-102.7z"/>
		<path class="st2" d="M0-105.4c0.8-0.1,1.3,0.2,1.3,1.1c0,0.8-0.3,1.3-1.3,1.1C0-103.9,0-104.7,0-105.4z"/>
		<path class="st2" d="M122.8-163.4c0.9,0.5,1.7,1,2.6,1.5c0.1,0.1,0.2,0.3,0.2,0.4c0.1,1,0.2,1.9,0.1,2.9c0,1-1.8,2.1-2.9,1.9
			c-1.7-0.3-2.3-1.2-2.1-2.9c0-0.3-0.1-0.5-0.2-0.8c-0.1-0.6-0.6-1.3-0.4-1.7c0.3-0.5,1.1-0.7,1.7-1c0.2-0.1,0.4,0,0.6,0
			C122.7-163.2,122.7-163.3,122.8-163.4z"/>
		<path class="st2" d="M167.3-262.9c-1-0.6-1.7-1.1-2.4-1.6c-0.3-0.3-0.5-0.7-0.9-1c-0.9-0.6-0.9-1.5-0.3-2.1c0.4-0.4,1.4-0.5,2-0.4
			c0.6,0.1,1.4,0.4,1.8,0.9c0.7,0.8,1.2,1.8,1.6,2.8C169.1-264.1,168.1-263.5,167.3-262.9z"/>
		<path class="st2" d="M410.5-22.6c1.1,0,2.2,0,2.3,1.6c0,0.2,0.3,0.4,0.5,0.5c1,0.6,1.1,1.1,0.4,2.1c-0.4,0.6-1.6,0.9-2.2,0.3
			c-0.9-0.9-1.8-1.8-2.6-2.7c-0.3-0.3-0.5-1-0.4-1.2c0.2-0.3,0.8-0.4,1.2-0.6C410-22.7,410.3-22.6,410.5-22.6z"/>
		<path class="st2" d="M27.7-87.2c0.3-0.7,0.4-1.7,0.9-2c1.1-0.5,1.6,0.5,2.1,1.3c0.1,0.2,0.4,0.4,0.6,0.6c0.5,0.5,0.5,1.1-0.1,1.6
			c-0.2,0.1-0.4,0.3-0.5,0.5c-0.3,0.5-0.2,1.4-1.1,1c-0.8-0.3-1.8-0.7-1.6-2c0-0.3,0-0.6,0-1C27.8-87.1,27.8-87.1,27.7-87.2z"/>
		<path class="st2" d="M104.6-192.6c1.4-0.2,2.1,0.9,2.7,1.7c0.7,0.8,0,2.2-1.1,2.2c-1.1,0.1-2.5,0.4-2.6-1.5c0-0.1,0-0.2-0.1-0.2
			c-0.5-0.4-1.2-0.9-0.6-1.6C103.3-192.4,104-192.4,104.6-192.6z"/>
		<path class="st2" d="M424-244.2c1-0.9,2.2-0.6,2.8,0.7c0.5,1.1-0.8,1.3-1.2,2c-0.1,0.2-0.9,0.2-1.1-0.1c-0.7-0.7-1.3-1.4-1.9-2.2
			c-0.1-0.2,0-0.5,0.1-0.8C423-244.4,423.4-244.3,424-244.2z"/>
		<path class="st2" d="M276.1-331.1c-0.3,0.4-0.8,1.2-1.5,1.5c-0.7,0.4-1-0.4-1-1c-0.1-0.8,0.1-1.5-0.8-2c-0.2-0.1-0.2-0.7-0.1-0.9
			c0.2-0.3,0.5-0.5,0.8-0.5C274.5-334,276.1-332.6,276.1-331.1z"/>
		<path class="st2" d="M40.8-440.7c1,0.8,2,1.4,2.9,2.1c0.2,0.1,0,1-0.2,1c-0.6,0.1-1.3,0.2-1.8,0.1c-0.6-0.1-1.2-0.5-1.8-0.8
			c-0.3-0.2-0.8-0.9-0.7-1.1C39.5-439.9,40.1-440.2,40.8-440.7z"/>
		<path class="st2" d="M80.3-430.2c0.5,0.4,1.3,0.8,1.4,1.3c0.1,1-0.9,1.8-1.9,1.7c-1,0-1.3-0.7-1.3-1.5
			C78.5-429.8,79.2-430,80.3-430.2z"/>
		<path class="st2" d="M211.7-380.6c1-0.7,2.1-1.1,3.3-0.8c0.3,0.1,0.6,0.8,0.6,1.2c0,0.3-0.6,0.8-0.9,0.7c-1-0.2-2-0.5-3-0.8
			C211.7-380.4,211.7-380.5,211.7-380.6z"/>
		<path class="st2" d="M262.7-238.3c0.6,0.5,1.3,1.2,1.3,1.2c-0.5,0.7-1,1.2-1.6,1.8c-0.5-0.6-1-1.2-1.5-1.7
			C261.4-237.4,261.9-237.8,262.7-238.3z"/>
		<path class="st2" d="M115.8-109c0.6,0.6,1.2,1,1.3,1.4c0.2,0.7-0.8,1.8-1.4,1.7c-1-0.1-1.3-0.9-1.2-1.6
			C114.5-107.9,115.2-108.3,115.8-109z"/>
		<path class="st2" d="M6.3-485.9c0.2-0.4,0.3-1.1,0.7-1.5c0.2-0.2,1.1,0,1.5,0.3c0.6,0.4,1.3,0.9,0.8,1.8C9.2-485,8.5-485,8.1-485
			C7.5-485.2,7-485.5,6.3-485.9z"/>
		<path class="st2" d="M253.2-242c0.3,0,0.7-0.1,1,0c0.3,0.2,0.8,0.6,0.8,0.9c0,0.3-0.4,0.8-0.8,0.8c-0.5,0.1-1.2,0.2-1.7,0
			c-0.4-0.1-1-0.5-1.1-0.8c-0.2-0.7,0.4-0.9,1.1-1C252.8-242,253-242,253.2-242C253.2-242,253.2-242,253.2-242z"/>
		<path class="st2" d="M246.4-348.6c-0.3,0.4-0.6,1-1.1,1.1c-0.8,0.2-1.1-0.5-1.2-1.2c0-0.3-0.1-0.6,0-0.8c0.3-0.5,0.6-0.9,1-1.4
			c0.3,0.4,0.7,0.9,0.9,1.3c0.1,0.2,0.1,0.5,0.1,0.7C246.2-348.7,246.3-348.7,246.4-348.6z"/>
		<path class="st2" d="M49.4-431.2c0,0.7-2.2,2.2-2.8,1.9c-0.2-0.1-0.5-0.4-0.5-0.5c0.5-0.7,0.9-1.5,1.5-2c0.3-0.2,1,0.1,1.5,0.3
			C49.3-431.6,49.4-431.3,49.4-431.2z"/>
		<path class="st2" d="M49.9-426.4c-0.1,1.1-0.2,1.8-0.4,2.5c0,0.1-0.4,0.3-0.6,0.3c-0.2,0-0.3-0.3-0.4-0.5
			c-0.2-0.5-0.4-0.9-0.6-1.4c-0.1-0.5-0.3-1-0.2-1.5c0.1-0.2,0.8-0.5,1.1-0.4C49.3-427.1,49.7-426.6,49.9-426.4z"/>
		<path class="st2" d="M164.1-260.3c-0.2,0.1-0.7,0.7-0.8,0.7c-0.7-0.5-1.2-1.1-1.8-1.7c0.4-0.3,0.8-0.8,1.2-0.8
			C163.6-262.3,164.1-261.7,164.1-260.3z"/>
		<path class="st2" d="M136-395.9c-1.2,0-2-0.8-1.9-1.7c0-0.3,0.5-0.6,0.7-0.9c0.6,0.6,1.3,1.2,1.9,1.8
			C136.8-396.6,136.2-396,136-395.9z"/>
		<path class="st2" d="M285.3-195.6c0.7,0.7,1.4,1.2,2,1.9c0.1,0.1-0.1,0.8-0.3,0.9c-0.3,0.1-0.8,0-1.1-0.1
			c-0.4-0.2-0.7-0.5-1.1-0.9c-0.2-0.2-0.6-0.6-0.5-0.8C284.5-195,284.9-195.2,285.3-195.6z"/>
		<path class="st2" d="M18.8-483.2c-0.1,2.2-0.9,2.9-2.3,2.3c-0.6-0.3-0.9-0.9-0.3-1.3C16.9-482.7,17.8-482.8,18.8-483.2z"/>
		<path class="st2" d="M408.5-14.5c-1.1-0.2-1.6-0.6-1.5-1.5c0.1-0.4,0.6-0.8,0.9-1.2c0.6,0.5,1.2,1,1.7,1.5
			C409.3-15.3,408.9-14.9,408.5-14.5z"/>
		<path class="st2" d="M397.1-210.6c0.2,0.2,0.6,0.5,0.8,0.9c0.2,0.5-1,1.6-1.9,1.6c-0.3,0-0.7-0.4-0.8-0.6
			C395.1-209.6,396.1-210.6,397.1-210.6z"/>
		<path class="st2" d="M115.8-226.8c0.5,0.6,1,1.1,1.4,1.7c0.2,0.3,0.1,0.8,0,1.1c-0.1,0.1-0.8,0.2-0.9,0.1
			c-0.5-0.4-0.9-0.9-1.1-1.5c-0.1-0.4,0.1-0.9,0.2-1.3C115.5-226.7,115.7-226.8,115.8-226.8z"/>
		<path class="st2" d="M459.3-133.7c-0.7-0.6-1.2-1-1.7-1.4c0.4-0.3,0.7-0.9,1.1-0.9c0.7,0,1.6,0,1.6,1
			C460.2-134.6,459.7-134.3,459.3-133.7z"/>
		<path class="st2" d="M117.3-285.9c0.6,0.6,1.2,1,1.2,1.4c0.1,0.9-0.7,0.9-1.4,0.9c-0.7,0-1.3-0.2-1.2-1
			C116.1-285,116.7-285.3,117.3-285.9z"/>
		<path class="st2" d="M203.8-377.5c0.7,0.8,1.2,1.3,1.6,1.9c0,0.1-0.9,0.9-0.9,0.8c-0.5-0.4-1-0.9-1.4-1.4
			C203-376.4,203.5-376.8,203.8-377.5z"/>
		<path class="st2" d="M385.1-331.6c-0.7,0.6-1.1,1-1.5,1.3c-0.3-0.4-0.8-0.9-0.9-1.3c0-0.4,0.5-0.8,0.8-1.2
			C384-332.5,384.4-332.2,385.1-331.6z"/>
		<path class="st2" d="M383.8-301.4c-0.5-0.6-0.7-0.9-1-1.3c0.4-0.3,0.8-0.9,1.2-0.9c0.4,0,0.8,0.6,1.2,0.9
			C384.7-302.3,384.4-302,383.8-301.4z"/>
		<path class="st2" d="M381.9-151.6c-0.6,0.5-0.9,0.9-1.3,1.2c-0.3-0.4-0.8-0.8-0.8-1.2c0-0.4,0.5-0.8,0.8-1.2
			C380.9-152.5,381.3-152.2,381.9-151.6z"/>
		<path class="st2" d="M287.8-309.4c-0.5,0.5-0.9,0.9-1.2,1.2c-0.3-0.4-0.8-0.8-0.8-1.2c0-0.4,0.5-0.7,0.8-1.1
			C286.9-310.2,287.3-309.9,287.8-309.4z"/>
		<path class="st2" d="M362.6-352c-0.6,0.5-0.9,0.8-1.3,1.1c-0.3-0.5-0.7-0.9-0.8-1.4c0-0.2,0.6-0.8,0.9-0.8
			C361.8-353,362.1-352.5,362.6-352z"/>
		<path class="st2" d="M73.5-99.7c-0.6,0.5-0.9,1-1.2,1c-0.4-0.1-0.9-0.7-0.9-1c0.1-0.4,0.6-0.8,0.9-1.2
			C72.7-100.6,73-100.3,73.5-99.7z"/>
		<path class="st2" d="M361.3-469.2c-0.6-0.6-0.9-0.9-1.3-1.3c0.4-0.3,0.7-0.9,1.1-0.8c0.4,0,0.8,0.5,1.1,0.9
			C362.3-470.3,361.8-469.8,361.3-469.2z"/>
		<path class="st2" d="M123.3-190.4c-0.5-0.5-0.8-0.9-1.1-1.2c0.4-0.3,0.8-0.8,1.1-0.8c0.4,0,0.8,0.5,1.1,0.8
			C124.1-191.2,123.8-190.9,123.3-190.4z"/>
		<path class="st2" d="M222.6-414.7c-0.5-0.6-0.8-0.9-1.1-1.3c0.4-0.3,0.8-0.8,1.2-0.8c0.3,0,0.9,0.6,0.9,0.9
			C223.7-415.5,223.1-415.2,222.6-414.7z"/>
		<path class="st2" d="M177.6-392.5c-0.4-0.6-0.7-0.9-0.9-1.3c0.4-0.3,0.8-0.8,1.3-0.8c0.3,0,0.7,0.6,1,0.9
			C178.6-393.3,178.2-393,177.6-392.5z"/>
		<path class="st2" d="M111.8-124.5c-0.5-0.6-0.9-1-0.9-1.3c0-0.3,0.6-0.8,0.9-0.8c0.4,0,0.8,0.5,1.1,0.8
			C112.6-125.5,112.3-125.2,111.8-124.5z"/>
		<path class="st2" d="M226.3-323.9c-0.5,0.6-1,1.2-1.4,1.7c-0.3-0.2-0.8-0.5-0.8-0.7c-0.1-1.3,1.2-0.9,1.8-1.4
			C226.1-324.1,226.2-324,226.3-323.9z"/>
		<path class="st2" d="M337.3-482.5c-0.4-0.5-0.9-1-0.8-1.2c0.1-0.3,0.7-0.8,1-0.8c0.4,0,0.8,0.5,1.1,0.8
			C338.2-483.3,337.8-483,337.3-482.5z"/>
		<path class="st2" d="M368.7-240c-0.6,0.5-0.9,1-1.3,1c-0.3,0-0.8-0.6-0.8-0.9c0-0.4,0.5-0.9,0.8-1
			C367.7-241,368.1-240.5,368.7-240z"/>
		<path class="st2" d="M224-473.3c-0.5,0.5-0.8,0.8-1.2,1.2c-0.3-0.3-0.7-0.7-0.7-1c0-0.4,0.5-0.8,0.7-1.1
			C223.2-474,223.5-473.7,224-473.3z"/>
		<path class="st2" d="M230.2-35.2c0.2,0.4,0.6,0.8,0.6,1.2c0,0.3-0.5,0.6-0.8,1c-0.3-0.3-0.8-0.6-0.8-0.9c0-0.4,0.4-0.8,0.6-1.2
			C229.9-35.2,230-35.2,230.2-35.2z"/>
		<path class="st2" d="M482-294.9c-0.6,0.5-0.9,1-1.3,1c-0.3,0-0.6-0.5-0.9-0.8c0.4-0.3,0.7-0.7,1.1-0.9
			C481-295.6,481.4-295.2,482-294.9z"/>
		<path class="st2" d="M210.1-109.6c-0.7,0.4-1.1,0.8-1.4,0.8c-0.3-0.1-0.8-0.6-0.8-0.9c0-0.3,0.5-0.8,0.9-0.8
			C209.1-110.7,209.4-110.2,210.1-109.6z"/>
		<path class="st2" d="M255-405.8c-0.2-0.4-0.6-0.7-0.6-1c0-0.3,0.5-0.6,0.8-1c0.3,0.3,0.8,0.6,0.8,0.9c0.1,0.3-0.4,0.7-0.6,1.1
			C255.3-405.9,255.2-405.9,255-405.8z"/>
		<path class="st2" d="M225.8-245.8c-0.4-0.7-0.9-1.1-0.9-1.4c0.1-0.3,0.6-0.8,0.9-0.8c0.3,0,0.8,0.5,0.8,0.9
			C226.8-246.8,226.3-246.5,225.8-245.8z"/>
		<path class="st2" d="M240-436.9c-0.4-0.7-0.8-1.1-0.7-1.4c0-0.3,0.5-0.5,0.8-0.8c0.3,0.3,0.7,0.6,0.8,1
			C240.9-437.8,240.5-437.5,240-436.9z"/>
		<path class="st2" d="M468.5-226.2c0.4,0.7,0.8,1,0.8,1.4c0,0.3-0.6,0.8-0.8,0.8c-0.4-0.1-0.8-0.5-0.9-0.9
			C467.6-225.2,468.1-225.6,468.5-226.2z"/>
		<path class="st2" d="M193.8-249.1c-0.6,0.4-1,0.8-1.3,0.7c-0.3-0.1-0.6-0.5-0.8-0.8c0.3-0.3,0.6-0.7,1-0.8
			C192.9-250,193.2-249.5,193.8-249.1z"/>
		<path class="st2" d="M422.3-224.8c-0.7,0.4-1.1,0.7-1.4,0.7c-0.3,0-0.8-0.7-0.7-0.8c0.1-0.3,0.6-0.7,0.9-0.8
			C421.4-225.7,421.7-225.3,422.3-224.8z"/>
		<path class="st2" d="M197.6-361.2c-0.4,0.2-0.7,0.6-1,0.6c-0.3,0-0.8-0.5-0.8-0.8c0-0.3,0.4-0.8,0.7-0.9c0.3,0,0.7,0.3,1.1,0.6
			C197.6-361.5,197.6-361.3,197.6-361.2z"/>
		<path class="st2" d="M146.3-155.1c-0.6,0.4-1,0.8-1.2,0.8c-0.4-0.1-0.6-0.5-0.9-0.8c0.3-0.3,0.6-0.7,1-0.8
			C145.4-156,145.8-155.6,146.3-155.1z"/>
		<path class="st2" d="M109.7-187.3c-0.3,0.2-0.7,0.6-1,0.6c-0.3,0-0.8-0.5-0.8-0.8c0-0.3,0.4-0.8,0.7-0.8c0.3,0,0.7,0.3,1.1,0.5
			C109.7-187.6,109.7-187.5,109.7-187.3z"/>
		<path class="st2" d="M202-116.6c-0.7,0.4-1.1,0.8-1.3,0.7c-0.3-0.1-0.7-0.6-0.8-0.9c0-0.2,0.6-0.7,0.8-0.7
			C201-117.6,201.3-117.1,202-116.6z"/>
		<path class="st2" d="M247.5-113.6c-0.7,0.4-1.1,0.8-1.4,0.8c-0.3,0-0.8-0.6-0.7-0.8c0.1-0.3,0.5-0.7,0.9-0.8
			C246.5-114.6,246.8-114.1,247.5-113.6z"/>
		<path class="st2" d="M372.8-110.7c-0.7,0.5-1,0.9-1.4,0.9c-0.3,0-0.5-0.5-0.8-0.8c0.3-0.3,0.6-0.7,1-0.8
			C371.8-111.6,372.2-111.2,372.8-110.7z"/>
		<path class="st2" d="M36.1-104.6c-0.6,0.4-1,0.8-1.2,0.8c-0.4-0.1-0.6-0.5-1-0.8c0.3-0.3,0.6-0.7,1-0.8
			C35.2-105.5,35.5-105,36.1-104.6z"/>
		<path class="st2" d="M289.6-33.6c-0.4-0.6-0.9-0.9-0.8-1.2c0.1-0.4,0.5-0.6,0.8-1c0.3,0.3,0.7,0.6,0.8,0.9
			C290.5-34.6,290-34.2,289.6-33.6z"/>
		<path class="st2" d="M318.2-345.1c-0.7,0.4-1.1,0.8-1.3,0.7c-0.3-0.1-0.6-0.6-0.8-0.9c0.3-0.3,0.6-0.7,0.9-0.7
			C317.3-346,317.6-345.6,318.2-345.1z"/>
		<path class="st2" d="M154.2-343.4c0.4,0.6,0.9,0.9,0.8,1.2c-0.1,0.4-0.5,0.6-0.8,0.9c-0.3-0.3-0.7-0.6-0.8-0.9
			C153.3-342.5,153.7-342.8,154.2-343.4z"/>
		<path class="st2" d="M48-319.6c-0.4-0.7-0.8-1.1-0.8-1.4c0-0.3,0.5-0.5,0.8-0.8c0.3,0.3,0.7,0.6,0.8,1
			C48.9-320.6,48.4-320.2,48-319.6z"/>
		<path class="st2" d="M114.6-222.1c0.4,0.6,0.9,0.9,0.9,1.3c0,0.3-0.5,0.5-0.8,0.8c-0.3-0.3-0.7-0.6-0.8-1
			C113.8-221.2,114.3-221.6,114.6-222.1z"/>
		<path class="st2" d="M412.8-353c-0.4-0.6-0.8-1-0.7-1.3c0.1-0.3,0.6-0.6,0.9-0.8c0.2,0.3,0.7,0.6,0.7,0.9
			C413.7-353.9,413.3-353.6,412.8-353z"/>
		<path class="st2" d="M423-147.8c-0.4-0.7-0.9-1-0.8-1.3c0-0.3,0.5-0.6,0.8-0.9c0.3,0.3,0.8,0.6,0.8,0.9
			C423.9-148.8,423.5-148.4,423-147.8z"/>
		<path class="st2" d="M140-86.2c-0.4,0.2-0.7,0.6-1.1,0.6c-0.3,0-0.7-0.5-0.7-0.8c0-0.3,0.5-0.8,0.8-0.8c0.3,0,0.7,0.4,1.1,0.6
			C140-86.5,140-86.3,140-86.2z"/>
		<path class="st2" d="M363.4-38.7c-0.3,0.2-0.7,0.7-1,0.7c-0.3,0-0.8-0.5-0.8-0.8c0-0.3,0.4-0.8,0.7-0.9c0.3,0,0.7,0.3,1.1,0.5
			C363.4-39.1,363.4-38.9,363.4-38.7z"/>
		<path class="st2" d="M482-304.6c-0.7,0.4-1.1,0.8-1.3,0.7c-0.3-0.1-0.6-0.6-0.8-0.9c0.3-0.3,0.6-0.7,0.9-0.7
			C481-305.6,481.3-305.1,482-304.6z"/>
		<path class="st2" d="M484.6-208.5c-0.4-0.6-0.8-1-0.7-1.3c0-0.3,0.5-0.6,0.8-0.8c0.3,0.3,0.7,0.6,0.8,0.9
			C485.5-209.4,485.1-209.1,484.6-208.5z"/>
		<path class="st2" d="M284.5-183.2c-0.4-0.6-0.9-1-0.8-1.2c0.1-0.3,0.6-0.6,0.9-0.9c0.3,0.3,0.7,0.6,0.7,0.9
			C285.4-184.1,285-183.8,284.5-183.2z"/>
		<path class="st2" d="M246.1-432.9c0.6,0.7,1.1,1.2,1.5,1.8c-0.2,0.1-0.5,0.4-0.5,0.4c-0.5-0.4-1.1-0.9-1.5-1.4
			C245.6-432.2,245.9-432.5,246.1-432.9z"/>
		<path class="st2" d="M73.5-440.9c-0.3,0.1-0.7,0.4-0.9,0.4c-0.3-0.1-0.6-0.5-0.9-0.7c0.3-0.2,0.6-0.7,0.8-0.7
			c0.4,0,0.7,0.4,1.1,0.6C73.5-441.1,73.5-441,73.5-440.9z"/>
		<path class="st2" d="M345.3-253.5c0.4,0.6,0.8,1,0.7,1.3c-0.1,0.3-0.6,0.7-0.8,0.7c-0.3,0-0.7-0.5-0.7-0.8
			C344.4-252.5,344.8-252.9,345.3-253.5z"/>
		<path class="st2" d="M83.5-417.2c0.4,0.6,0.8,1,0.7,1.3c-0.1,0.3-0.6,0.6-0.9,0.8c-0.2-0.3-0.7-0.6-0.7-0.9
			C82.6-416.3,83-416.6,83.5-417.2z"/>
		<path class="st2" d="M476.9-279.4c-0.7,0.4-1.1,0.8-1.3,0.7c-0.3-0.1-0.6-0.6-0.7-0.9c0-0.2,0.5-0.7,0.8-0.7
			C475.9-280.2,476.2-279.8,476.9-279.4z"/>
		<path class="st2" d="M214.1-387.6c-0.6,0.4-1,0.8-1.3,0.7c-0.3-0.1-0.8-0.5-0.7-0.8c0-0.3,0.5-0.7,0.8-0.8
			C213.1-388.5,213.4-388,214.1-387.6z"/>
		<path class="st2" d="M53.1-14.4c-0.4-0.7-0.8-1-0.8-1.3c0.1-0.3,0.5-0.7,0.8-0.7c0.2,0,0.7,0.5,0.7,0.7
			C53.8-15.4,53.5-15,53.1-14.4z"/>
		<path class="st2" d="M293.9-164.3c-0.7,0.4-1,0.8-1.3,0.8c-0.3-0.1-0.7-0.5-0.7-0.8c0-0.2,0.5-0.7,0.7-0.7
			C292.9-165,293.3-164.7,293.9-164.3z"/>
		<path class="st2" d="M41.7-455.2c-0.1-0.4-0.4-0.8-0.3-1.1c0.1-0.3,0.5-0.8,0.8-0.8c0.3,0,0.6,0.4,0.9,0.7
			c-0.2,0.3-0.5,0.6-0.7,0.8C42.1-455.4,41.9-455.3,41.7-455.2z"/>
		<path class="st2" d="M412-370.4c-0.5,0.3-0.8,0.7-1.1,0.7c-0.3,0-0.5-0.5-0.8-0.7c0.3-0.3,0.5-0.7,0.9-0.8
			C411.2-371.2,411.5-370.8,412-370.4z"/>
		<path class="st2" d="M438.3-4.5c-0.6,0.3-0.9,0.7-1.2,0.7c-0.3,0-0.5-0.5-0.7-0.7c0.3-0.3,0.5-0.7,0.9-0.7
			C437.5-5.3,437.8-4.9,438.3-4.5z"/>
		<path class="st2" d="M365.5-261.3c-0.5,0.4-0.8,0.8-1,0.7c-0.3-0.1-0.6-0.5-0.8-0.8c0.3-0.2,0.5-0.7,0.8-0.7
			C364.7-262,365-261.7,365.5-261.3z"/>
		<path class="st2" d="M243-467.7c-0.2-0.5-0.5-0.9-0.4-0.9c0.5-0.5,1-0.9,1.5-1.3c0,0,0.4,0.3,0.3,0.4
			C244.1-469,243.6-468.4,243-467.7z"/>
		<path class="st2" d="M239.1-397.7c-0.5,0.3-0.9,0.7-1.1,0.7c-0.3-0.1-0.5-0.5-0.8-0.8c0.3-0.2,0.5-0.6,0.8-0.6
			C238.4-398.5,238.7-398.1,239.1-397.7z"/>
		<path class="st2" d="M43-423.1c0.3,0.5,0.7,0.9,0.6,1.2c-0.1,0.3-0.5,0.5-0.8,0.7c-0.2-0.3-0.6-0.5-0.7-0.8
			C42.2-422.4,42.6-422.6,43-423.1z"/>
		<path class="st2" d="M127.8-355.9c-0.4,0.3-0.7,0.6-1,0.8c-0.2-0.3-0.6-0.7-0.6-1c0-0.2,0.5-0.5,0.7-0.7
			C127.2-356.6,127.4-356.3,127.8-355.9z"/>
		<path class="st2" d="M51-88.4c-0.3-0.5-0.7-0.8-0.7-1.1c0-0.3,0.5-0.5,0.7-0.7c0.2,0.3,0.7,0.5,0.7,0.8
			C51.8-89.2,51.4-88.9,51-88.4z"/>
		<path class="st2" d="M322.9-466.2c0.3,0.6,0.6,0.9,0.6,1.2c0,0.3-0.4,0.6-0.6,0.9c-0.2-0.3-0.6-0.5-0.6-0.8
			C322.4-465.2,322.6-465.6,322.9-466.2z"/>
		<path class="st2" d="M409.9-276.4c-0.4-0.5-0.7-0.8-0.8-1.1c0-0.2,0.4-0.7,0.6-0.7c0.3,0,0.7,0.4,0.8,0.6
			C410.6-277.3,410.3-276.9,409.9-276.4z"/>
		<path class="st2" d="M78.4-218.7c-0.4-0.5-0.7-0.8-0.7-1.1c0-0.3,0.4-0.5,0.7-0.8c0.2,0.2,0.6,0.5,0.6,0.7
			C79-219.6,78.7-219.2,78.4-218.7z"/>
		<path class="st2" d="M80.3-204.7c0.3,0.4,0.7,0.7,0.7,0.9c-0.1,0.3-0.5,0.5-0.7,0.8c-0.2-0.2-0.6-0.5-0.6-0.7
			C79.7-203.9,80-204.2,80.3-204.7z"/>
		<path class="st2" d="M238.1-442.3c0.3,0.5,0.6,0.8,0.6,1.1c0,0.2-0.5,0.7-0.7,0.6c-0.3-0.1-0.6-0.4-0.7-0.7
			C237.3-441.5,237.7-441.8,238.1-442.3z"/>
		<path class="st2" d="M370.5-327c-0.5,0.4-0.8,0.8-1,0.7c-0.3-0.1-0.6-0.4-0.7-0.7c0-0.1,0.4-0.7,0.6-0.7
			C369.7-327.7,370-327.3,370.5-327z"/>
		<path class="st2" d="M90.5-236.6c0.4-0.4,0.7-0.7,1.1-1.1c0.2,0.2,0.5,0.5,0.5,0.5c-0.3,0.4-0.7,0.7-1.1,1.1
			C90.8-236.2,90.6-236.4,90.5-236.6z"/>
		<path class="st2" d="M221.2-486.8c-0.3-0.3-0.7-0.6-1-0.9c0.2-0.2,0.5-0.4,0.7-0.6c0.3,0.4,0.6,0.7,0.9,1.1
			C221.6-487.1,221.4-487,221.2-486.8z"/>
		<path class="st2" d="M436.1-154.2c-0.4,0.3-0.7,0.7-0.9,0.7c-0.3-0.1-0.5-0.4-0.8-0.7c0.3-0.3,0.5-0.6,0.8-0.7
			C435.4-154.9,435.7-154.5,436.1-154.2z"/>
		<path class="st2" d="M235.1-215.7c-0.6,0.3-0.9,0.6-1.2,0.6c-0.2,0-0.6-0.5-0.6-0.7c0-0.2,0.4-0.6,0.7-0.6
			C234.3-216.5,234.6-216.1,235.1-215.7z"/>
		<path class="st2" d="M325.5-183.4c-0.6,0.2-0.9,0.5-1.2,0.4c-0.3,0-0.5-0.4-0.7-0.6c0.3-0.2,0.6-0.4,0.9-0.4
			C324.8-184,325-183.7,325.5-183.4z"/>
		<path class="st2" d="M160.2-305.8c0.3,0.5,0.7,0.7,0.6,1c0,0.3-0.4,0.5-0.6,0.7c-0.3-0.3-0.6-0.5-0.7-0.8
			C159.5-305,159.9-305.3,160.2-305.8z"/>
		<path class="st2" d="M244.1-475.6c-0.5,0.3-0.8,0.7-1,0.6c-0.3-0.1-0.5-0.5-0.7-0.7c0.3-0.2,0.5-0.6,0.8-0.6
			C243.4-476.3,243.7-475.9,244.1-475.6z"/>
		<path class="st2" d="M61.1-19.7c0.3,0.4,0.7,0.7,0.7,0.9c0,0.3-0.4,0.5-0.6,0.8c-0.3-0.2-0.7-0.4-0.7-0.7
			C60.4-18.9,60.8-19.2,61.1-19.7z"/>
		<path class="st2" d="M231.9-481.7c0.4,0.4,0.8,0.7,0.7,0.9c-0.1,0.3-0.4,0.5-0.7,0.8c-0.2-0.2-0.6-0.4-0.7-0.7
			C231.3-480.9,231.6-481.2,231.9-481.7z"/>
		<path class="st2" d="M37.9-26.9c-0.4,0.4-0.7,0.8-0.9,0.7c-0.3-0.1-0.5-0.4-0.8-0.7c0.2-0.2,0.4-0.6,0.7-0.7
			C37.1-27.5,37.4-27.1,37.9-26.9z"/>
		<path class="st2" d="M444.3-189.5c0.3,0.5,0.6,0.8,0.6,1c-0.1,0.3-0.5,0.5-0.8,0.7c-0.2-0.3-0.5-0.5-0.5-0.8
			C443.6-188.8,444-189.1,444.3-189.5z"/>
		<path class="st2" d="M256.2-283.6c-0.3-0.5-0.6-0.8-0.6-1c0-0.3,0.4-0.4,0.7-0.7c0.2,0.2,0.6,0.5,0.6,0.7
			C256.9-284.3,256.5-284,256.2-283.6z"/>
		<path class="st2" d="M219.8-75.4c-0.3-0.4-0.6-0.7-0.6-1c0-0.2,0.5-0.7,0.6-0.6c0.3,0.1,0.6,0.4,0.7,0.7
			C220.6-76.1,220.2-75.8,219.8-75.4z"/>
		<path class="st2" d="M474.5-55.9c-0.4,0.2-0.7,0.5-0.8,0.5c-0.3-0.2-0.5-0.5-0.8-0.7c0.2-0.2,0.5-0.6,0.7-0.5
			C473.9-56.6,474.1-56.3,474.5-55.9z"/>
		<path class="st2" d="M47.3-50.3c-0.4,0.7-0.5,1.1-0.8,1.5c-0.2,0.2-0.6,0.1-0.9,0.1c0.1-0.3,0-0.7,0.2-0.8
			C46.1-49.8,46.6-49.9,47.3-50.3z"/>
		<path class="st2" d="M24.7-46c-0.3-0.5-0.6-0.7-0.6-1c0-0.3,0.4-0.5,0.6-0.7c0.2,0.3,0.6,0.5,0.7,0.8C25.5-46.7,25.1-46.4,24.7-46
			z"/>
		<path class="st2" d="M158.2-194.7c-0.4,0.4-0.7,0.7-0.9,0.7c-0.3,0-0.7-0.4-0.7-0.6c0-0.2,0.4-0.6,0.6-0.7
			C157.4-195.3,157.7-194.9,158.2-194.7z"/>
		<path class="st2" d="M398.7-1.5c-0.5,0.3-0.8,0.6-1,0.6c-0.2,0-0.6-0.4-0.6-0.6c0.1-0.3,0.4-0.6,0.6-0.7
			C398-2.2,398.3-1.8,398.7-1.5z"/>
		<path class="st2" d="M176.6-486.6c0.3,0.4,0.5,0.7,0.7,0.9c-0.3,0.2-0.5,0.5-0.8,0.5c-0.2,0-0.6-0.4-0.6-0.6
			C175.9-486,176.3-486.2,176.6-486.6z"/>
		<path class="st2" d="M56.1-287.6c-0.5,0.3-0.8,0.6-1,0.6c-0.2,0-0.5-0.4-0.6-0.7c0-0.1,0.4-0.5,0.6-0.5
			C55.3-288.2,55.6-287.9,56.1-287.6z"/>
		<path class="st2" d="M25.8-336.1c-0.5,0.3-0.8,0.6-1,0.6c-0.2-0.1-0.5-0.4-0.6-0.7c0-0.1,0.4-0.5,0.6-0.5
			C25-336.7,25.3-336.4,25.8-336.1z"/>
		<path class="st2" d="M2.5-212.8c0.4,0.5,0.7,0.7,0.7,1c0,0.2-0.4,0.7-0.5,0.6c-0.3,0-0.7-0.3-0.7-0.6
			C1.8-211.9,2.2-212.2,2.5-212.8z"/>
		<path class="st2" d="M484.7-212.9c-0.5,0.4-0.7,0.7-0.9,0.7c-0.2,0-0.6-0.4-0.7-0.6c0-0.2,0.3-0.6,0.5-0.6
			C483.9-213.4,484.1-213.1,484.7-212.9z"/>
		<path class="st2" d="M394.7-452.4c-0.3-0.5-0.6-0.8-0.6-1c0-0.2,0.4-0.6,0.7-0.6c0.2,0,0.6,0.4,0.6,0.7
			C395.4-453.1,395-452.8,394.7-452.4z"/>
		<path class="st2" d="M294.6-75.3c-0.5,0.3-0.8,0.7-1,0.6c-0.2,0-0.5-0.4-0.6-0.7c0-0.1,0.4-0.6,0.6-0.6
			C293.9-75.9,294.1-75.6,294.6-75.3z"/>
		<path class="st2" d="M52-475.4c-0.3-0.5-0.6-0.8-0.5-1.1c0-0.3,0.4-0.5,0.6-0.7c0.2,0.2,0.5,0.5,0.6,0.7
			C52.7-476.2,52.3-475.9,52-475.4z"/>
		<path class="st2" d="M456.3-342.1c0.4,0.4,0.7,0.6,0.7,0.8c0,0.3-0.3,0.6-0.6,0.7c-0.1,0.1-0.6-0.3-0.6-0.5
			C455.8-341.3,456-341.6,456.3-342.1z"/>
		<path class="st2" d="M436.1-308.8c-0.5,0.3-0.8,0.6-1,0.6c-0.2,0-0.6-0.5-0.5-0.6c0.1-0.3,0.4-0.6,0.7-0.6
			C435.4-309.4,435.7-309.1,436.1-308.8z"/>
		<path class="st2" d="M214.7-397.7c-0.5,0.3-0.7,0.6-0.9,0.6c-0.3-0.1-0.4-0.4-0.7-0.6c0.2-0.2,0.4-0.6,0.6-0.5
			C214-398.3,214.3-398,214.7-397.7z"/>
		<path class="st2" d="M388.7-282.6c-0.3-0.5-0.7-0.8-0.6-1c0-0.2,0.4-0.5,0.7-0.6c0.1,0,0.6,0.4,0.6,0.6
			C389.3-283.3,389-283,388.7-282.6z"/>
		<path class="st2" d="M381.5-217.9c-0.3-0.5-0.6-0.8-0.6-1c0.1-0.2,0.5-0.5,0.7-0.5c0.2,0,0.5,0.4,0.5,0.6
			C382.1-218.6,381.8-218.3,381.5-217.9z"/>
	</g>
</pattern>
<polyline class="st3" points="0.1,0.6 1600.1,0.6 1600.1,999.4 0.1,999.4 "/>
<pattern  id="SVGID_1_" xlink:href="#Unnamed_Pattern_2" patternTransform="matrix(0 -1.0125 1.1121 0 2053.0679 -13922.1113)">
</pattern>
<rect x="34.3" y="5.7" class="st4" width="1528.1" height="988.6"/>
<path class="st5" d="M661.9,159.9c-0.9,3.9-4.2,5.5-6.8,7.4c-8.6,6.3-17,12.8-24.8,20c-7.2,6.5-14.2,13.1-21.3,19.7
	c-1.8,1.7-3.7,3.3-5.5,5c-3,2.7-5.3,6.1-6.5,10c-1.3,4.2-1.8,8.7-2.7,13.1c-0.7,3.5,0.8,6.3,2.6,9.1c3.8,5.9,8,11.6,11.6,17.6
	c1.3,2.1,1.9,4.9,2.1,7.4c0.3,4.1,0.2,8.3-1.2,12.3c-1.9,5.6-3.8,11.1-5.7,16.7c-0.3,0.8-0.6,1.6-0.6,2.4c0.1,2.6-1.7,4-3.4,5.4
	c-0.4,0.3-1.3,0.3-1.8,0.1c-4.1-2.3-8.2-4.7-12.2-7.2c-2.1-1.3-3.9-2.9-5.9-4.4c-0.2-0.2-0.5-0.3-0.5-0.5c-1.5-4.7-5.7-8.3-5.4-13.6
	c0.1-1.3,0.3-2.6,0.7-3.8c1.6-4.8,5.6-8.1,8-12.3c1.4-2.5,4-4.5,4-7.9c0-2.6-1.5-3.8-3.3-5.1c-3.5-2.4-7.1-4.7-10.4-7.3
	c-2.4-1.9-3.7-4.7-4.4-7.7c-0.4-1.8-1.3-3.5-1.5-5.2c-0.3-3.8,0.6-7.4,2.2-10.9c0.4-0.9,1.1-1.8,1.3-2.7c0.7-3.5,3.9-5.3,5.6-8.1
	c3.3-5.5,7.7-10,12.8-13.9c5.6-4.3,11-8.9,16.7-13.1c2.1-1.6,4.6-2.6,7-3.8c0.9-0.5,1.8-1.2,2.9-1.5c1.6-0.5,3.3-0.7,4.8-1.1
	c1.7-0.5,3.4-1.1,5-1.7c5.4-1.8,10.7-3.6,16-5.5c2.3-0.8,4.6-1.9,6.8-3.1c3.1-1.7,6.3-3.3,9.3-5.3
	C659.6,158.5,659.5,158.3,661.9,159.9z"/>
<path class="st5" d="M658,449.8c-3,0-6.1,0.1-9.1-0.1c-3.8-0.3-7-2-9.5-4.9c-1.9-2.2-4.2-4.3-5.4-6.8c-2.1-4.2-3.2-8.9-5.2-13.1
	c-1.4-2.9-3.2-5.8-5.4-8.1c-2.8-2.8-6-5.3-9.4-7.4c-4.6-2.7-7.5-6.8-9.5-11.4c-1.7-4-3.4-8.2-3.4-12.9c0-4.5-0.9-9-1.9-13.4
	c-0.4-1.7-2-3.2-3-4.8c-3.3-4.9-5.1-10.4-6.1-16.3c-1.7-10.3,0.2-20,7.1-27.7c4.1-4.6,9.2-8.9,15.5-10.8c2.6-0.8,5.2-0.6,7.6,0.4
	c1.1,0.4,2.2,1.7,2.7,2.9c1.6,4,0.6,7.8-1.8,11.3c-4.1,6.1-6.7,12.7-7.7,20c-0.9,6.8,1,12.3,6.2,16.6c2.9,2.5,4.8,5.6,6,9.1
	c1,3.1,2.3,6.1,2.9,9.2c0.4,2-0.3,4.1-0.2,6.2c0.1,3.8-0.4,7.5,1.1,11.2c1.5,3.6,3.4,6.7,6.5,8.9c1.5,1.1,3.4,1.9,5.2,2.1
	c4.1,0.6,6.6,2.9,8.7,6.3c1.8,3,2.7,6.2,3.8,9.5c1.3,4.1,4.1,7.1,7.4,9.6c2.6,1.9,5.5,0.7,8.2,0c1.9-0.5,3.7-1.3,5.6-1.9
	c2-0.6,4.4,1.4,4.5,3.7c0,0.3-0.1,0.8-0.3,1c-2,1.9-3.8,3.9-6,5.5c-2.3,1.6-4.9,3-7.5,4.1c-2.4,1-5,1.6-7.5,2.3
	C658.1,450.2,658,450,658,449.8z"/>
<path class="st5" d="M568,414c-0.5,3.3-1.1,7.2-1.5,11.1c-0.5,4.6-0.9,9.2-1.2,13.8c-0.2,3.1-0.4,6.2,0,9.3
	c0.5,4.7,1.6,9.4,2.2,14.1c0.5,4.3,2.5,8.1,4.4,11.9c2.7,5.6,6.5,10.4,10.8,14.9c3.6,3.7,7.4,7,11.8,9.8c2.5,1.5,4.8,3.3,5.7,6.3
	c0.4,1.5-0.1,3-1.6,3.7c-2.6,1.1-5.2,0.3-7.5-0.7c-2.7-1.2-5.2-2.9-7.7-4.5c-2.2-1.3-4.2-2.8-6.3-4.3c-5.4-3.7-10.8-7.5-14.9-12.7
	c-1.4-1.8-3-3.5-4.5-5.3c-1.8-2.1-2.7-4.5-3-7.2c-0.5-4.6-1.1-9.3,0.2-13.9c1.2-4.3,1.2-8.7,0.7-13.1c-0.2-1.9-0.9-3.8-1.6-5.6
	c-1.2-2.7-2.5-5.3-3.9-7.8c-2.3-3.9-4.7-7.8-7.1-11.7c-2-3.4-2.5-7.3-2.9-11.1c-0.2-1.6-0.5-3.3-0.4-4.9c0.1-2.5,0.4-4.9,0.7-7.4
	c0-0.2,0-0.4,0.1-0.5c3.2-3.4,4.6-7.9,6.9-11.9c1.5-2.7,3.8-4.9,6.9-6c2.9-1,5.7,0.4,7.3,3.6c1.2,2.4,2.7,4.7,3.7,7.2
	c0.7,1.6,1,3.4,1.2,5.1c0.7,4.6,1.2,9.2,1.7,13.7C567.9,411.1,567.9,412.3,568,414z"/>
<path class="st5" d="M779.3,270c-1.5,0.6-3,1.4-4.4,2.2c-4.9,2.8-10.1,5.1-15.6,6.1c-3.9,0.7-7.9,1-11.8,1.4
	c-1.7,0.2-3.4,0.2-5.1,0.4c-7.9,1.1-15.6,0-23.3-1.6c-4.5-1-8.1-3.7-11.5-6.6c-1.9-1.6-4-2.9-6-4.4c-3.1-2.4-6.2-4.8-9.2-7.2
	c-2.7-2.1-5.5-4.2-8.2-6.4c-0.3-0.2-0.6-1-0.4-1.2c0.3-0.5,0.9-1,1.5-1.2c2.9-0.9,5.8-0.2,8.5,0.7c5.4,1.6,10.7,3.4,16.2,5
	c4.3,1.3,8.7,1.6,13.3,0.9c2.5-0.4,5.2-0.2,7.8,0.3c5.8,1.2,11.5,2.8,17.3,4c4.8,1,9.6,1.9,14.4,2.4c4.4,0.5,8.7-0.6,12.8-2.6
	c3.4-1.7,7-2.9,11-2.9c1.7,0,2.8,0.7,3.1,1.9c0.4,1.3,0.1,2.9-1.2,4C787.9,265.6,782,269,779.3,270z"/>
<path class="st5" d="M660.2,233.4c4.2,0.9,6.7,3.3,8.3,6.5c1.7,3.7,2.5,7.8,3.1,11.9c0.8,5.6,1.3,11.4,4.1,16.3
	c2.6,4.7,6,9,9.2,13.3c0.5,0.7,2,0.8,2.7,1.4c0.8,0.7,1.3,1.8,2,2.6c-0.7,0.4-1.3,1.1-2.1,1.2c-2.4,0.3-4.8,0.6-7.2,0.4
	c-2.9-0.3-6-0.7-8.5-1.9c-3.2-1.5-5.9-4-8.9-6c-0.3-0.2-0.5-0.4-0.7-0.6c-1.6-2.3-3.1-4.7-4.8-7c-3.3-4.5-5.6-9.5-6.7-14.9
	c-0.5-2.6-1.2-5.2-1.1-7.8c0.3-4.7,1.4-9.4,4.8-12.9C655.9,234.6,658.5,234.2,660.2,233.4z"/>
<path class="st5" d="M695.8,365.6c0.8,0.2,1.5,0.4,2.3,0.5c1.5,0.2,2.2,1.5,1.4,2.7c-0.9,1.5-1.8,2.6-4,2.6c-2,0-4.1,0.7-6,1.3
	c-3,1-6,0.1-9-0.2c-0.7-0.1-1.4-0.3-2.1-0.3c-5.8,0.1-10.8-2.3-15.7-4.9c-3.5-1.8-6.4-4.3-9.1-7.1c-1.9-2-3.7-4.1-6.4-5
	c-1.4-0.5-2.9-0.6-4.3-0.8c-2-0.3-4.1-0.4-6.1-1c-5.9-1.7-9.6-5.8-11.3-11.7c-0.4-1.4-0.8-2.8-1.1-4.2c-0.1-0.3,0-0.9,0.1-1
	c1.6-0.8,1.7-2.6,2.7-3.7c0.6-0.6,1.4-1.4,2.2-1.4c2.6-0.1,5.2,0,7.7,0.3c3.4,0.4,6.8,1.3,9.6,3.4c2.1,1.6,4.1,3.4,5.9,5.3
	c1.8,1.9,3.2,4.1,4.7,6.2c1.6,2.2,3.1,4.6,4.9,6.7c2.6,3.1,5.8,5.4,9.4,7.2c6.4,3.2,13.2,4.7,20.2,5.5c1.3,0.2,2.7-0.5,4.1-0.7
	C695.8,365.4,695.8,365.5,695.8,365.6z"/>
<path class="st5" d="M688.1,224.1c-3.6,0-7.3-0.1-10.9,0c-0.6,0-1.2,0.3-1.8,0.3c-0.9,0-2,0.1-2.8-0.3c-0.4-0.2-0.6-1.3-0.5-1.9
	c0.2-3.7,1.5-7,3.8-9.8c1.4-1.8,3.6-3,5.6-4.4c1.3-0.9,2.8-1.9,4.3-2.3c3.9-1.1,7.3-3.6,11.7-3c1.6,0.2,3.3-0.2,4.9-0.4
	c3.1-0.5,6.3-1.3,9.4-1.4c2.9-0.1,5.8,0.1,8.7,1.2c3,1.1,6,1.8,8.8,3.4c0.5,0.3,1.1,0.6,1.5,1.1c1.3,1.7,0.6,3.6-1.6,4.7
	c-1.6,0.8-3.2,1.1-4.8,0.8c-4.1-0.8-6.9,1.4-9.5,3.9c-2.9,2.8-5.9,5.3-9.7,6.5c-2.5,0.7-5.1,1.1-7.7,1.5c-3.1,0.4-6.2,0.6-9.3,0.8
	C688.1,224.5,688.1,224.3,688.1,224.1z"/>
<path class="st5" d="M628.2,269.4c-0.1-2.3,0.1-4.3-0.2-6.2c-0.4-1.9-1-4-2-5.7c-2.5-4.3-5.3-8.5-8-12.7c-2.5-3.9-3.7-8.2-3.8-12.9
	c0-0.2,0.1-0.4,0.1-0.6c2.6-6.5,4.7-13.2,10-18.2c2.3-2.2,8.8-2.3,11,0c1.1,1.1,2.2,2.3,3.2,3.5c1.8,2.2,1.5,4.5,0.2,6.7
	c-2.3,4.1-4.9,8.1-7,12.3c-1.6,3.2-1.8,6.9-1.3,10.5c0.5,4,1.1,7.9,1.5,11.9c0.4,3.6-0.2,7.1-2.1,10.2
	C629.4,268.8,628.7,269.1,628.2,269.4z"/>
<path class="st5" d="M653.1,299.2c-5,0.2-9.6-1.2-14-3.1c-3.1-1.3-5.6-3.4-7.2-6.4c-0.3-0.6-0.8-1.2-1.2-1.7
	c-1.8-2.3-2.4-7.8-0.5-9.6c5.5-5.5,14.1-6.4,19.4,0.1c3.5,4.4,6.7,8.9,11.9,11.5c2.9,1.4,5.6,3.3,9.1,2.9c1.4-0.2,1.9,1.1,1.8,1.9
	c-0.1,0.6-1.2,1.5-2,1.7c-3,0.8-6.1,1.5-9.1,2C658.5,298.8,655.8,298.9,653.1,299.2z"/>
<path class="st5" d="M688.3,401.4c-3.3-0.6-6.7-1.1-10-1.6c-0.9-0.1-1.8,0.1-2.6,0c-3.4-0.3-6.9-0.6-10.3-1c-1-0.1-1.9-1-2.9-1.5
	c-2.5-1.3-5.1-2.6-7.6-4.1c-4.1-2.5-8.2-5.1-11.2-8.9c-1.2-1.5-1.5-3.8-1.9-5.8c-0.1-0.5,1-1.7,1.7-1.9c0.8-0.3,2.1-0.2,2.8,0.3
	c2.5,1.8,4.8,4,7.3,5.9c4.4,3.5,9.5,5.7,14.9,7.1c3.1,0.8,6.1,2.1,9.2,2.6c3,0.5,6.1,0.7,9,0.3c4.6-0.7,9.1-2.1,13.6-3
	c1-0.2,2.7,0.2,3.3,1c0.9,1,0.3,2.4-0.8,3.3c-2.8,2.1-5.5,4.4-8.5,6.1c-1.6,0.9-3.9,0.6-5.9,0.9
	C688.4,401.2,688.4,401.3,688.3,401.4z"/>
<path class="st5" d="M679.1,414.2c2.2,0.7,4.2,1.7,6.4,1.9c2.7,0.3,5.5,1,8-1.3c0.9-0.8,2.4-1.1,3.7-1.2c1.6-0.2,2.4,1.5,1.8,3.3
	c-0.7,1.8-1.5,3.6-2.4,5.4c-0.8,1.4-1.8,2.7-2.7,4c-1,1.5-2.8,1.7-4.1,1.6c-4.5-0.4-8.8-1.7-11.9-5.4c-1.1-1.3-2.7-2.2-3.6-3.5
	c-1.5-2.1,0-4.6,2.6-4.7C677.7,414.4,678.4,414.3,679.1,414.2z"/>
<path class="st5" d="M654.9,212.6c-0.7-0.1-1.2,0-1.4-0.2c-1.4-1.5-3.2-1.2-5-1.3c-1.5-0.1-2.2-1.6-1.2-2.7c1.1-1.3,2.4-2.5,3.6-3.7
	c1.2-1.1,2.5-1.9,3.7-2.9c3.1-2.5,6.2-5,9.5-7.3c0.7-0.5,2.7-0.4,3.2,0.2c1,1.1,1.9,2.8,1.9,4.3c-0.1,3.2-1.4,6.2-4.3,8.1
	c-2.8,1.8-5.6,3.6-8.5,5.3C656,212.6,655.3,212.6,654.9,212.6z"/>
<path class="st5" d="M551.8,293c-0.1,8.4,3.1,15.8,10,22.8c5.3,5.4,7.8,10.8,4.9,16.6c-1.3,2.7-1.9,5.5-3.8,8
	c-1,1.4-3.7,2.4-5.9,3.3c-0.7,0.3-2.8,0.1-3.5-0.3c-0.7-0.4-0.6-1.3-0.6-1.9c0.5-4.6,1.2-9.1,1.6-13.7c0.5-4.9-4-9.1-8-13.3
	c-7.4-7.7-9.4-15.7-8.2-23.9c0.2-1.1,0-2.4,0.9-3.3c1-1.1,3.3-3,4.4-2.8c2.5,0.3,5.8,1.6,6.7,2.8C551.7,289.2,551.5,291.5,551.8,293
	z"/>
<path class="st5" d="M791.6,355c1-4.1,1.9-8.2,5.3-11.2c0.5-0.4,0.9-0.9,1.4-1.3c1.4-1.4,4.4-1.8,5.8-0.7c1.8,1.3,2.3,4.6,1.2,6.5
	c-1.7,3-3.1,6-4.7,9c-0.8,1.6-1.6,3.1-2.6,4.6c-1.2,1.7-3.2,2.3-4.6,1.8c-1.3-0.5-2.5-3-2.2-4.7C791.3,357.6,791.5,356.3,791.6,355z
	"/>
<path class="st5" d="M783.1,368.3c-0.7,5.3-1.9,10.3-5.9,14c-1,1-2.7,1.7-4.1,1.8c-2.4,0.1-3.1-1.4-2-3.5c0.4-0.9,0.9-1.4,0.5-2.7
	c-0.3-0.9,0.6-2.5,1.4-3.6c1.8-2.7,3.8-5.2,5.6-7.9c0.4-0.5,0.3-1.4,0.7-1.9c0.6-0.7,1.4-1.6,2.1-1.7c1.3-0.2,1.5,1,1.5,2.1
	C782.9,366.1,783,367.3,783.1,368.3z"/>
<path class="st5" d="M812.1,450.5c-4.3-0.1-8.5-0.9-12.8-1.5c4.3,1.2,8.4,3.1,12.8,3.9V450.5z"/>
<path class="st5" d="M812.1,447.8c-1.4-0.2-2.8-0.4-4.2-0.7c-2.4-0.5-4.6-1.4-7-2.1c-0.8-0.2-1.6-0.2-2.4-0.3c0,0.3-0.1,0.7-0.1,1
	c4.6,1.2,9.2,2.3,13.7,3.5V447.8z"/>
<path class="st5" d="M809.1,436.3c1,0.2,2,0.4,3,0.7v-1.2c-0.9-0.3-1.9-0.7-2.8-1.1c-1.2-0.5-2.5-0.7-4.1-1.1
	c0.5,0.9,0.8,1.6,1.1,2.1C807.3,435.9,808.2,436.1,809.1,436.3z"/>
<path class="st5" d="M812.1,440.2c-4-1-7.8-2.8-11.7-4.2c-0.1,0.2-0.2,0.4-0.2,0.6c3.6,2.6,7.8,3.7,12,4.8V440.2z"/>
<path class="st5" d="M723.4,379.9c-0.6,3.8-5.3,7.5-9,6.9c-0.7-0.1-1.5-1-1.8-1.7c-0.2-0.6,0.1-1.6,0.6-2.1c1.8-1.7,3.7-3.4,5.6-4.9
	c0.8-0.6,2.3-1.4,2.9-1C722.6,377.5,722.9,378.9,723.4,379.9z"/>
<path class="st5" d="M812.1,445.1c-1.6-0.3-3.2-0.6-4.8-0.9c-2.8-0.5-5.5-1.4-8.6-2.2c0.3,0.5,0.5,1.1,0.8,1.3c1,0.5,2,0.9,3,1.1
	c3.2,0.6,6.4,1.3,9.6,1.8V445.1z"/>
<path class="st5" d="M806.4,428.6c1.9,0.5,3.8,1,5.6,1.4v-1c-1.7-0.5-3.4-1.1-5-2c-0.4-0.2-1.1,0.1-1.6,0.2
	C805.7,427.7,806,428.5,806.4,428.6z"/>
<path class="st5" d="M812.1,431.2c-1.6-0.4-3.1-0.7-4.7-1.1c-0.6-0.1-1.2,0.1-1.8,0.1c0,0.2,0,0.4-0.1,0.6c0.8,0.3,1.6,0.7,2.4,0.8
	c1.3,0.3,2.8,0.4,4.2,0.7V431.2z"/>
<path class="st5" d="M761.3,387.9c-0.7,0.2-1.6,0.5-2.5,0.7c-0.5,0.1-1.3-0.1-1.4-0.4c-0.2-0.5-0.1-1.2,0.2-1.7
	c0.6-1.1,1.3-2.2,2.1-3.3c0.3-0.4,1.3-1,1.5-0.9c0.6,0.4,1.2,1.2,1.2,1.8C762.1,385.2,761.6,386.4,761.3,387.9z"/>
<path class="st5" d="M812.1,420.1c-0.9-0.2-1.9-0.3-2.8-0.4c-0.1,0.2-0.2,0.4-0.3,0.6c0.5,0.3,1.1,0.6,1.6,0.8
	c0.5,0.1,0.9,0.2,1.4,0.3V420.1z"/>
<line class="st5" x1="647.5" y1="623.2" x2="647.6" y2="623.3"/>
<path class="st5" d="M1180.6,156.2c-0.5-5.5-1.7-10.9-2.5-16.6c-1.6,4.3-2.7,8.2-4.3,11.7c-2.2,4.9-4.2,10.3-7.2,14.2
	c-5.5,7.3-11.4,14-19,17.4c-0.9,0.4-1.8,1-2.6,1.5c-3.7,2.3-7.3,4.6-11,6.8c-2.8,1.7-5.6,3.2-8.5,4.7c-4.5,2.4-8.9,4.7-13.4,6.9
	c-1,0.5-2.2,0.2-3.4,0.3c-0.1-0.3-0.3-0.7-0.4-1c0.6-1.9,1.2-3.8,1.9-5.6c1.7-3.9,3.6-7.7,5.2-11.7c1.3-3.3,2.9-6.8,1.1-10.8
	c-0.6-1.4-1.2-2.9-1.7-4.4c-1.7-5.1-4.8-7.9-8.8-7.5c-4.6,0.6-9.1,2.3-13.7,3.2c-2.5,0.5-5,0.4-7.5,0.2c-1.9-0.2-3.8-1-5.7-1.8
	c-1.1-0.4-2.5-0.8-3.1-1.8c-3.1-5.9-5.9-12.2-9-18.1c-1.1-2-2.6-3.7-4.2-5c-4.5-3.6-25.4-3.8-29.2-3.8c-4.7,0-9.4,0.5-13.3-4.4
	c-0.3-0.4-0.9-0.4-1.4-0.3c-2.8,1-5.5,2.2-8.3,3.1c-2.7,0.9-5.3,3.1-8.3,1.9c-2.7-1-5.3-2.2-7.9-3.6c-2.4-1.4-4.8-3-7-5
	c-2.9-2.6-5.7-5.4-8.6-8.2c-11.4-2.1-22.3-7.5-32.9-12.6c-14.1-6.7-29.7-13.5-45.3-7.8c-3.8,1.4-16.8,11.4,46,35.4
	c0.7,0.3,7.6,1.6,10.4,2.8c5.8,2.5,11.4,5.3,17.2,7.8c4.1,1.8,8.1,3.5,12.3,4.9c5,1.7,10.1,3.1,15.2,4.6c3.5,1,7,1.4,10.5-0.6
	c3.4-2,7-2.7,10.6-0.8c1,0.6,2.1,2.2,2.4,3.7c0.7,3.4,0.8,7,1.3,10.5c0.2,1.4,0.4,3.1,1.1,4c2.6,3.4,5.3,6.7,8.2,9.6
	c3.5,3.4,7.4,5.9,12,4.8c1.2-0.3,2.4-0.2,3.6-0.4c3.1-0.4,6.1-1.2,9.2-1.3c2.5-0.1,5.1,0,7.4,1.1c2,0.9,3.9,3.1,5.5,5.1
	c1.6,1.9,2.8,4.4,4.1,6.6c3.7,6.3,7,12.8,8.1,21.1c0.7,5.2,2.4,10,5.5,13.9c5,6.2,10.1,12.2,13.8,20c1,2.1,2.1,4.1,3.1,6.2
	c1.8,3.9,4,7.6,5.1,11.8c1.6,6.1,5.1,9.6,8.4,14.1c1.8-5.4,4.7-8.2,8.6-9.2c5.1-1.4,6.1,4.5,8.3,8.3c0.4-0.4,0.9-0.7,1.2-1.1
	c3.4-4.7,7.1-9,10-14.2c5.5-9.6,12.1-18.3,13.9-31c0.1-0.8,1.2-1.4,1.9-2.1c0.4,0.7,0.9,1.3,1.1,2c0.6,2.4,0.8,4.9,1.5,7.2
	c0.5,1.9,1.4,3.7,2.3,5.8c1.9-10.5,3.7-20.3,5.4-30.1c1.2-6.9,2.5-13.8,3.3-20.9c1-8.7,1.6-17.4,2-26.2
	C1181.3,166.5,1181.1,161.3,1180.6,156.2z"/>
<path class="st5" d="M681.2,126.2c3.5-2.1,6.9-4.1,10.4-6c2.1-1.3,4.3-2.5,6.4-3.8c2.1-2,13.6-11.2-1.3-15.1
	c-10.4,1.2-20.8,2.3-31,3.7c-3.1,2.1-6.1,4.2-9,6.7c-4.6,4-8.8,8.5-13.4,12.6c-2.2,2-4.6,3.6-7,5c-2.5,1.5-5.2,2.6-7.9,3.6
	c-2.9,1.2-5.6-1-8.3-1.9c-2.8-0.9-5.5-2.1-8.3-3.1c-0.4-0.1-1.1-0.1-1.4,0.3c-3.8,4.9-26.7,3.9-27.7,4.1c-5,0.8-10.2,0.6-14.8,4.1
	c-1.6,1.3-3.2,3-4.2,5c-3.1,5.9-5.9,12.2-9,18.1c-0.6,1.1-2,1.4-3.1,1.8c-1.9,0.7-3.8,1.6-5.7,1.8c-2.5,0.3-5,0.3-7.5-0.2
	c-4.6-0.9-9.1-2.6-13.7-3.2c-4-0.5-7.1,2.3-8.8,7.5c-0.5,1.5-1.1,3-1.7,4.4c-1.8,4-0.2,7.5,1.1,10.8c1.5,4,3.5,7.8,5.2,11.7
	c0.8,1.8,1.3,3.7,1.9,5.6c-0.1,0.3-0.3,0.7-0.4,1c-1.1-0.1-2.4,0.2-3.4-0.3c-4.5-2.2-9-4.5-13.4-6.9c-2.9-1.5-5.7-3.1-8.5-4.7
	c-3.7-2.2-7.3-4.5-11-6.8c-0.9-0.5-1.7-1.1-2.6-1.5c-7.6-3.3-13.5-10.1-19-17.4c-3-4-5-9.3-7.2-14.2c-1.6-3.5-2.7-7.4-4.3-11.7
	c-0.9,5.7-2,11.1-2.5,16.6c-0.5,5.1-0.8,10.3-0.5,15.5c0.4,8.8,1,17.5,2,26.2c0.8,7,2.1,13.9,3.3,20.9c1.7,9.8,3.5,19.6,5.4,30.1
	c0.9-2.1,1.8-3.9,2.3-5.8c0.6-2.3,0.9-4.8,1.5-7.2c0.2-0.8,0.7-1.4,1.1-2c0.6,0.7,1.7,1.3,1.9,2.1c1.8,12.7,8.4,21.4,13.9,31
	c3,5.1,6.7,9.5,10,14.2c0.3,0.4,0.8,0.7,1.2,1.1c2.3-3.8,3.3-9.7,8.3-8.3c3.9,1.1,6.9,3.8,8.6,9.2c3.3-4.5,6.7-8,8.4-14.1
	c1.1-4.2,3.3-7.9,5.1-11.8c1-2.1,2.1-4.1,3.1-6.2c3.7-7.9,8.8-13.9,13.8-20c3.1-3.8,4.8-8.7,5.5-13.9c1.2-8.3,4.4-14.7,8.1-21.1
	c1.3-2.3,2.6-4.7,4.1-6.6c1.6-2,3.5-4.2,5.5-5.1c2.3-1.1,4.9-1.2,7.4-1.1c3.1,0.1,6.1,0.9,9.2,1.3c1.2,0.2,2.4,0.1,3.6,0.4
	c4.6,1.2,8.5-1.3,12-4.8c2.9-2.9,5.6-6.2,8.2-9.6c0.7-0.9,0.9-2.6,1.1-4c0.5-3.5,0.6-7.1,1.3-10.5c0.3-1.5,1.4-3.1,2.4-3.7
	c3.5-1.9,7.1-1.2,10.6,0.8c3.5,2,6.9,1.6,10.5,0.6c5.1-1.5,10.1-2.9,15.2-4.6c4.1-1.4,8.2-3.1,12.3-4.9
	C662.3,139.2,678.7,127.6,681.2,126.2z"/>
<path class="st5" d="M945.2,187.8c-0.8-2.9-1.9-5.6-4.2-7.8c-1-0.9-1.9-2-2.9-3c-4.6-4.7-10.3-7.9-15.7-11.5
	c-4.8-3.1-9.6-6.3-14.5-9.4c-5.3-3.3-10.6-6.7-16.6-8.5c-4-1.2-8.3-1.8-12.5-2.5c-1-0.2-2.2,0.4-3.3,0.5c-1.9,0.2-3.7,0.3-5.6,0.6
	c-4,0.7-8,1.4-11.9,2.5c-3.5,1.1-6.7,3.1-10.2,4.1c-3.8,1.1-7.8,2.2-11.7,2.2c-5.2,0-10.4-1.1-14.9-3.9c-2.6-1.6-4.8-4-7.3-5.9
	c-0.5-0.4-1.5-0.7-2.1-0.6c0,0,0,0-0.1,0c0,0,0,0-0.1,0c-0.6-0.1-1.6,0.1-2.1,0.6c-2.5,1.9-4.7,4.3-7.3,5.9
	c-4.5,2.8-9.7,3.9-14.9,3.9c-3.9,0-7.9-1.1-11.7-2.2c-3.5-1-6.7-3-10.2-4.1c-3.9-1.2-7.9-1.8-11.9-2.5c-1.8-0.3-3.7-0.4-5.6-0.6
	c-1.1-0.1-2.2-0.7-3.3-0.5c-4.2,0.7-8.4,1.3-12.5,2.5c-6,1.8-11.3,5.2-16.6,8.5c-4.9,3-9.7,6.2-14.5,9.4
	c-5.4,3.5-11.1,6.8-15.7,11.5c-1,1-1.9,2.1-2.9,3c-2.3,2.1-3.3,4.9-4.2,7.8c-0.3,1-0.7,2.1-0.5,3.1c0.3,2.4,2.8,4.2,5.2,3.5
	c2.5-0.7,4.9-1.8,7.3-2.8c3.9-1.6,7.8-3.3,11.8-4.9c3.2-1.2,6.2,0.3,9.1,1c4.8,1.2,9.6,1.9,14.3-0.4c2.8-1.3,5.7-2.3,8.6-3.4
	c2.2-0.9,4.6-1.5,6.7-2.6c2.7-1.3,5.5-1.7,8.5-1.6c4.5,0.1,8.9,1,13.2,2.1c5.5,1.3,10.6,0.2,15.8-1.6c3.6-1.2,6.9-3.6,11.3-2.8
	c3,0.5,5.4,1.2,7,3.7c1.7,2.7,3.3,5.4,5.1,8c2.1,2.9,4,6.2,7.3,8c0.4,0.2,0.8,0.7,0.9,1.1c0.2,1.5,3.4,1.5,3.5,0
	c0-0.4,0.5-0.9,0.9-1.1c3.4-1.8,5.2-5.1,7.3-8c1.8-2.6,3.4-5.3,5.1-8c1.7-2.5,4.1-3.2,7-3.7c4.4-0.8,7.7,1.6,11.3,2.8
	c5.2,1.8,10.3,2.9,15.8,1.6c4.3-1,8.7-2,13.2-2.1c3-0.1,5.8,0.3,8.5,1.6c2.2,1,4.5,1.7,6.7,2.6c2.9,1.1,5.8,2.1,8.6,3.4
	c4.8,2.3,9.5,1.6,14.3,0.4c3-0.7,6-2.3,9.1-1c4,1.5,7.8,3.3,11.8,4.9c2.4,1,4.8,2.1,7.3,2.8c2.4,0.7,5-1.2,5.2-3.5
	C945.9,189.9,945.5,188.8,945.2,187.8z"/>
<path class="st5" d="M906.7,228.3c-2-2-4.2-3.3-7-3.9c-3.6-0.8-6.3-3-9.1-5.4c-2.8-2.4-6.2-4.1-9.1-6.4c-4.6-3.7-9.1-2.4-13.7-0.3
	c-2.2,1-4.3,1.4-6.8,1.2c-2.8-0.3-5.7,0.7-8.6,0.7c-5.8,0.1-11.1,2.4-16.7,3.4c-6.5,1.2-12.2-0.1-16.6-5.4c-1-1.2-1.9-2.9-3.2-3.4
	c-1.3-0.5-2.7-0.9-4.1-1c-1.4,0.1-2.9,0.5-4.1,1c-1.3,0.5-2.2,2.2-3.2,3.4c-4.4,5.3-10.1,6.6-16.6,5.4c-5.6-1.1-10.9-3.4-16.7-3.4
	c-2.9,0-5.8-1-8.6-0.7c-2.5,0.2-4.6-0.2-6.8-1.2c-4.6-2.1-9.1-3.4-13.7,0.3c-2.9,2.3-6.3,4-9.1,6.4c-2.8,2.4-5.5,4.7-9.1,5.4
	c-2.8,0.6-4.9,1.9-7,3.9c-2.1,2-2.8,4.4-2,6.9c1,2.8,3.1,4.9,5.7,6.3c0.4,0.2,1,0.1,1.5,0.2c5.6,0.4,11-0.9,16.3-2.6
	c1.9-0.6,4-1.2,5.9-1c4.7,0.5,8.9,2.7,12.8,5.2c1.4,0.9,2.8,1.7,4.4,2.1c2,0.5,4.2,0.4,6.1,1c3.5,1.2,7,2,10.5,0.4
	c0.5-0.2,1.1-0.4,1.7-0.3c4.6,0.8,9,0.3,13.2-1.5c2.8-1.1,5.3-2.9,8.1-4.2c3.8-1.9,7.7-3.8,10.6-7c2.9,3.2,6.8,5.1,10.6,7
	c2.7,1.3,5.3,3.1,8.1,4.2c4.2,1.7,8.7,2.3,13.2,1.5c0.5-0.1,1.2,0,1.7,0.3c3.6,1.6,7,0.8,10.5-0.4c1.9-0.6,4.1-0.5,6.1-1
	c1.5-0.4,3-1.2,4.4-2.1c4-2.5,8.1-4.7,12.8-5.2c1.9-0.2,4,0.4,5.9,1c5.3,1.7,10.6,3,16.3,2.6c0.5,0,1.1,0.1,1.5-0.2
	c2.6-1.4,4.7-3.5,5.7-6.3C909.6,232.6,908.8,230.3,906.7,228.3z"/>
<path class="st5" d="M960.6,159.6c-1.1,3,5.3,5.8,8,7.8c8.6,6.3,17,12.8,24.8,20c7.1,6.5,14.2,13.1,21.3,19.7c1.8,1.7,3.7,3.3,5.5,5
	c3,2.7,5.3,6.1,6.5,10c1.3,4.2,1.8,8.7,2.7,13.1c0.7,3.5-0.8,6.3-2.6,9.1c-3.8,5.9-8,11.6-11.6,17.6c-1.3,2.1-1.9,4.9-2.1,7.4
	c-0.3,4.1-0.2,8.3,1.2,12.3c1.9,5.6,3.8,11.1,5.7,16.7c0.3,0.8,0.6,1.6,0.6,2.4c-0.1,2.6,1.7,4,3.4,5.4c0.4,0.3,1.3,0.3,1.8,0.1
	c4.1-2.3,8.2-4.7,12.2-7.2c2.1-1.3,3.9-2.9,5.9-4.4c0.2-0.2,0.5-0.3,0.5-0.5c1.5-4.7,5.7-8.3,5.4-13.6c-0.1-1.3-0.3-2.6-0.7-3.8
	c-1.6-4.8-5.6-8.1-8-12.3c-1.4-2.5-4-4.5-4-7.9c0-2.6,1.5-3.8,3.3-5.1c3.5-2.4,7.1-4.7,10.4-7.3c2.4-1.9,3.7-4.7,4.4-7.7
	c0.4-1.8,1.3-3.5,1.5-5.2c0.3-3.8-0.6-7.4-2.2-10.9c-0.4-0.9-1.1-1.8-1.3-2.7c-0.7-3.5-3.9-5.3-5.6-8.1c-3.3-5.5-7.7-10-12.8-13.9
	c-5.6-4.3-11-8.9-16.7-13.1c-2.1-1.6-4.6-2.6-7-3.8c-0.9-0.5-6.1-2.2-7.7-2.6c-1.7-0.5-3.4-1.1-5-1.7c-5.4-1.8-10.7-3.6-16-5.5
	c-2.3-0.8-4.6-1.9-6.8-3.1c-3.1-1.7-6.3-3.3-9.3-5.3C964.1,158.5,963,157.9,960.6,159.6z"/>
<path class="st5" d="M862.1,319.9c-0.1-6.7-2.9-12.3-6.3-17.7c-2.8-4.5-4.5-9.4-5.4-14.6c-0.2-1.1,0.2-2.5-1.5-2.8
	c-2-0.4-3.7,0.3-4.5,1.9c-0.5,1.2-0.8,2.4-1.4,3.5c-0.3,0.7-1.1,1.6-1.6,1.6c-0.7-0.1-1.5-0.8-1.9-1.5c-1.6-2.7-2.9-5.6-4.6-8.3
	c-1.8-2.9-3.7-5.8-5.9-8.3c-2.3-2.7-5.1-5-7.7-7.3c-0.7-0.6-1.8-1-2.8-1.1c-1.5-0.2-3-0.3-4-1.7c-0.1-0.2-0.7-0.1-1.1-0.1
	c-0.6,0.1-1.2,0.2-1.7,0.3c-0.6-0.1-1.1-0.2-1.7-0.3c-0.4,0-0.9-0.1-1.1,0.1c-1,1.4-2.5,1.5-4,1.7c-1,0.1-2.1,0.5-2.8,1.1
	c-2.7,2.3-5.4,4.7-7.7,7.3c-2.2,2.5-4.1,5.4-5.9,8.3c-1.7,2.7-3,5.6-4.6,8.3c-0.4,0.7-1.2,1.4-1.9,1.5c-0.5,0.1-1.3-0.9-1.6-1.6
	c-0.6-1.1-0.8-2.4-1.4-3.5c-0.7-1.6-2.5-2.3-4.5-1.9c-1.7,0.3-1.4,1.7-1.5,2.8c-0.8,5.2-2.5,10.1-5.4,14.6c-3.4,5.4-6.2,11-6.3,17.7
	c-0.1,7.3-0.3,14.6,0.6,21.8c0.2,1.9,0.9,3.9,2,5.4c1.8,2.3,6.3,1.4,7.8-0.5c1.1-1.4,2.4-2.9,3.1-4.5c2-4.9,3.6-10,5.5-15
	c1.5-4.1,3.5-8,7-10.8c6.4-5.1,13.6-9.3,19-15.6c2-2.3,4.3-4.3,5.3-7.2c1.1,2.8,3.4,4.9,5.3,7.2c5.4,6.3,12.6,10.5,19,15.6
	c3.6,2.8,5.5,6.7,7,10.8c1.9,5,3.5,10,5.5,15c0.7,1.7,1.9,3.1,3.1,4.5c1.6,2,6,2.9,7.8,0.5c1.1-1.4,1.7-3.5,2-5.4
	C862.4,334.5,862.3,327.2,862.1,319.9z"/>
<path class="st5" d="M969.2,449.7c3,0,6.1,0.1,9.1-0.1c3.8-0.3,7-2,9.5-4.9c1.9-2.2,4.2-4.3,5.4-6.8c2.1-4.2,3.2-8.9,5.2-13.1
	c1.4-2.9,3.2-5.8,5.4-8.1c2.8-2.8,6-5.3,9.4-7.4c4.6-2.7,7.5-6.8,9.5-11.4c1.7-4,3.4-8.2,3.4-12.9c0-4.5,0.9-9,1.9-13.4
	c0.4-1.7,2-3.2,3-4.8c3.3-4.9,5.1-10.4,6.1-16.3c1.7-10.3-0.2-20-7.1-27.7c-4.1-4.6-9.2-8.9-15.5-10.8c-2.6-0.8-5.2-0.6-7.6,0.4
	c-1.1,0.4-2.2,1.7-2.7,2.9c-1.6,4-0.6,7.8,1.8,11.3c4.1,6.1,6.7,12.7,7.7,20c0.9,6.8-1,12.3-6.2,16.6c-2.9,2.5-4.8,5.6-6,9.1
	c-1,3.1-2.3,6.1-2.9,9.2c-0.4,2,0.3,4.1,0.2,6.2c-0.1,3.8,0.4,7.5-1.1,11.2c-1.5,3.6-3.4,6.7-6.5,8.9c-1.5,1.1-3.4,1.9-5.2,2.1
	c-4.1,0.6-6.6,2.9-8.7,6.3c-1.8,3-2.7,6.2-3.8,9.5c-1.3,4.1-4.1,7.1-7.4,9.6c-2.6,1.9-5.5,0.7-8.2,0c-1.9-0.5-3.7-1.3-5.6-1.9
	c-2-0.6-20.4-0.1-20.5,2.2c0,0.3,8.4,5.8,8.6,6.1c2,1.9,11.5,0.4,13.7,2c2.3,1.6,4.9,3,7.5,4.1C964,449,966.7,449,969.2,449.7
	C969.2,449.6,969.1,449.9,969.2,449.7z"/>
<path class="st5" d="M1053.8,419.1c0.5,4.6,0.9,9.2,1.2,13.8c0.2,3.1,0.4,6.2,0,9.3c-0.5,4.7-1.6,9.4-2.2,14.1
	c-0.5,4.3-2.5,8.1-4.4,11.9c-2.7,5.6-6.5,10.4-10.8,14.9c-3.6,3.7-7.4,7-11.8,9.8c-2.5,1.5-4.8,3.3-5.7,6.3c-0.4,1.5,0.1,3,1.6,3.7
	c2.6,1.1,5.2,0.3,7.5-0.7c2.7-1.2,5.2-2.9,7.7-4.5c2.2-1.3,4.2-2.8,6.3-4.3c5.4-3.7,10.8-7.5,14.9-12.7c1.4-1.8,3-3.5,4.5-5.3
	c1.8-2.1,2.7-4.5,3-7.2c0.5-4.6,1.1-9.3-0.2-13.9c-1.2-4.3-1.2-8.7-0.7-13.1c0.2-1.9,0.9-3.8,1.6-5.6c1.2-2.7,2.5-5.3,3.9-7.8
	c2.3-3.9,4.7-7.8,7.1-11.7c2-3.4,2.5-7.3,2.9-11.1c0.2-1.6,0.5-3.3,0.4-4.9c-0.1-2.5-0.4-4.9-0.7-7.4c0-0.2,0-0.4-0.1-0.5
	c-3.2-3.4-4.6-7.9-6.9-11.9c-1.5-2.7-3.8-4.9-6.9-6c-2.9-1-5.7,0.4-7.3,3.6c-1.2,2.4-2.7,4.7-3.7,7.2c-0.7,1.6-1,3.4-1.2,5.1
	c-0.7,4.6-1.2,9.2-1.7,13.7C1052.3,405.1,1053.4,415.2,1053.8,419.1z"/>
<path class="st5" d="M975.6,488.6c4.6-0.6,9.1-1.1,13.7-1.5c4.2-0.4,7.2-2.4,9.4-6.1c2.8-4.9,5.5-9.9,9.7-13.7
	c1.7-1.5,3.7-2.7,5.7-3.8c2.1-1.2,4.4-1.9,6.5-3.1c1.3-0.8,2.7-1.9,3.3-3.3c1.5-2.8,2.8-5.8,3.6-8.9c0.5-2.1,0.2-4.5,0-6.8
	c-0.5-4.1,0.4-8.1,1.4-12c1.2-4.4,2.7-8.6,4.2-12.9c0.5-1.4,1.4-2.6,2.1-4c-2.3-1.3-3.7,0.4-5,1.2c-1.4,0.9-2.5,2.3-3.6,3.6
	c-4.4,5.2-8.6,10.4-11,17c-1.3,3.6-3,7.2-4.7,10.7c-0.6,1.1-1.5,2.3-2.6,3c-5.3,3.3-7.9,8.4-10.5,13.7c-2.2,4.6-5.3,8.3-10,10.7
	c-5.2,2.6-10.5,4.8-16.5,4.6C970,477,970.5,489.3,975.6,488.6z"/>
<path class="st5" d="M844.3,270c1.5,0.6,3,1.4,4.4,2.2c4.9,2.8,10.1,5.1,15.6,6.1c3.9,0.7,7.9,1,11.8,1.4c1.7,0.2,3.4,0.2,5.1,0.4
	c7.9,1.1,15.6,0,23.3-1.6c4.5-1,8.1-3.7,11.5-6.6c1.9-1.6,4-2.9,6-4.4c3.1-2.4,6.2-4.8,9.2-7.2c2.7-2.1,5.5-4.2,8.2-6.4
	c0.3-0.2,0.6-1,0.4-1.2c-0.3-0.5-0.9-1-1.5-1.2c-2.9-0.9-5.8-0.2-8.5,0.7c-5.4,1.6-10.7,3.4-16.2,5c-4.3,1.3-8.7,1.6-13.3,0.9
	c-2.5-0.4-5.2-0.2-7.8,0.3c-5.8,1.2-11.5,2.8-17.3,4c-4.8,1-9.6,1.9-14.4,2.4c-4.4,0.5-8.7-0.6-12.8-2.6c-3.4-1.7-7-2.9-11-2.9
	c-1.7,0-2.8,0.7-3.1,1.9c-0.4,1.3-0.1,2.9,1.2,4C835.8,265.6,841.6,269,844.3,270z"/>
<path class="st5" d="M963.5,233.4c-4.2,0.9-6.7,3.3-8.3,6.5c-1.7,3.7-2.5,7.8-3.1,11.9c-0.8,5.6-1.3,11.4-4.1,16.3
	c-2.6,4.7-6,9-9.2,13.3c-0.5,0.7-2,0.8-2.7,1.4c-0.8,0.7-1.3,1.8-2,2.6c0.7,0.4,1.3,1.1,2.1,1.2c2.4,0.3,4.8,0.6,7.2,0.4
	c2.9-0.3,6-0.7,8.5-1.9c3.2-1.5,5.9-4,8.9-6c0.3-0.2,0.5-0.4,0.7-0.6c1.6-2.3,3.1-4.7,4.8-7c3.3-4.5,5.6-9.5,6.7-14.9
	c0.5-2.6,1.2-5.2,1.1-7.8c-0.3-4.7-1.4-9.4-4.8-12.9C967.7,234.6,965.2,234.2,963.5,233.4z"/>
<path class="st5" d="M927.8,365.6c-0.8,0.2-1.5,0.4-2.3,0.5c-1.5,0.2-2.2,1.5-1.4,2.7c0.9,1.5,1.8,2.6,4,2.6c2,0,4.1,0.7,6,1.3
	c3,1,6,0.1,9-0.2c0.7-0.1,1.4-0.3,2.1-0.3c5.8,0.1,10.8-2.3,15.7-4.9c3.5-1.8,6.4-4.3,9.1-7.1c1.9-2,3.7-4.1,6.4-5
	c1.4-0.5,2.9-0.6,4.3-0.8c2-0.3,4.1-0.4,6.1-1c5.9-1.7,9.6-5.8,11.3-11.7c0.4-1.4,0.8-2.8,1.1-4.2c0.1-0.3,0-0.9-0.1-1
	c-1.6-0.8-1.7-2.6-2.7-3.7c-0.6-0.6-1.4-1.4-2.2-1.4c-2.6-0.1-5.2,0-7.7,0.3c-3.4,0.4-6.8,1.3-9.6,3.4c-2.1,1.6-4.1,3.4-5.9,5.3
	c-1.8,1.9-3.2,4.1-4.7,6.2c-1.6,2.2-3.1,4.6-4.9,6.7c-2.6,3.1-5.8,5.4-9.4,7.2c-6.4,3.2-13.2,4.7-20.2,5.5c-1.3,0.2-2.7-0.5-4.1-0.7
	C927.8,365.4,927.8,365.5,927.8,365.6z"/>
<path class="st5" d="M935.5,224.7c3.6,0,7.3-0.6,11-0.6c0.6,0,1.2,0.3,1.8,0.3c0.9,0,2,0.1,2.8-0.3c0.4-0.2,0.6-1.3,0.5-1.9
	c-0.2-3.7-1.5-7-3.8-9.8c-1.4-1.8-3.6-3-5.6-4.4c-1.3-0.9-2.8-1.9-4.3-2.3c-3.9-1.1-7.3-3.6-11.7-3c-1.6,0.2-3.3-0.2-4.9-0.4
	c-3.1-0.5-6.3-1.3-9.4-1.4c-2.9-0.1-5.8,0.1-8.7,1.2c-3,1.1-6,1.8-8.8,3.4c-0.5,0.3-1.1,0.6-1.5,1.1c-1.3,1.7-0.6,3.6,1.6,4.7
	c1.6,0.8,3.2,1.1,4.8,0.8c4.1-0.8,6.9,1.4,9.5,3.9c2.9,2.8,5.9,5.3,9.7,6.5c2.5,0.7,5.1,1.1,7.7,1.5
	C929.3,224.2,932.4,224.4,935.5,224.7C935.5,224.5,935.5,224.8,935.5,224.7z"/>
<path class="st5" d="M995.4,269.4c0.1-2.3-0.1-4.3,0.2-6.2c0.4-1.9,1-4,2-5.7c2.5-4.3,5.3-8.5,8-12.7c2.5-3.9,3.7-8.2,3.8-12.9
	c0-0.2-0.1-0.4-0.1-0.6c-2.6-6.5-4.7-13.2-10-18.2c-2.3-2.2-8.8-2.3-11,0c-1.1,1.1-2.2,2.3-3.2,3.5c-1.8,2.2-1.5,4.5-0.2,6.7
	c2.3,4.1,4.9,8.1,7,12.3c1.6,3.2,1.8,6.9,1.3,10.5c-0.5,4-1.1,7.9-1.5,11.9c-0.4,3.6,0.2,7.1,2.1,10.2
	C994.2,268.8,994.9,269.1,995.4,269.4z"/>
<path class="st5" d="M970.5,299.2c5,0.2,9.6-1.2,14-3.1c3.1-1.3,5.6-3.4,7.2-6.4c0.3-0.6,0.8-1.2,1.2-1.7c1.8-2.3,2.4-7.8,0.5-9.6
	c-5.5-5.5-14.1-6.4-19.4,0.1c-3.5,4.4-6.7,8.9-11.9,11.5c-2.9,1.4-5.6,3.3-9.1,2.9c-1.4-0.2-1.9,1.1-1.8,1.9c0.1,0.6,1.2,1.5,2,1.7
	c3,0.8,6.1,1.5,9.1,2C965.1,298.8,967.8,298.9,970.5,299.2z"/>
<path class="st5" d="M935.3,401.4c3.3-0.6,6.7-1.1,10-1.6c0.9-0.1,1.8,0.1,2.6,0c3.4-0.3,6.9-0.6,10.3-1c1-0.1,1.9-1,2.9-1.5
	c2.5-1.3,5.1-2.6,7.6-4.1c4.1-2.5,8.2-5.1,11.2-8.9c1.2-1.5,1.5-3.8,1.9-5.8c0.1-0.5-1-1.7-1.7-1.9c-0.8-0.3-2.1-0.2-2.8,0.3
	c-2.5,1.8-4.8,4-7.3,5.9c-4.4,3.5-9.5,5.7-14.9,7.1c-3.1,0.8-6.1,2.1-9.2,2.6c-3,0.5-6.1,0.7-9,0.3c-4.6-0.7-9.1-2.1-13.6-3
	c-1-0.2-2.7,0.2-3.3,1c-0.9,1-0.3,2.4,0.8,3.3c2.8,2.1,5.5,4.4,8.5,6.1c1.6,0.9,3.9,0.6,5.9,0.9
	C935.2,401.2,935.2,401.3,935.3,401.4z"/>
<path class="st5" d="M944.5,414.2c-2.2,0.7-4.2,1.7-6.4,1.9c-2.7,0.3-5.5,1-8-1.3c-0.9-0.8-2.4-1.1-3.7-1.2
	c-1.6-0.2-2.4,1.5-1.8,3.3c0.7,1.8,1.5,3.6,2.4,5.4c0.8,1.4,1.8,2.7,2.7,4c1,1.5,2.8,1.7,4.1,1.6c4.5-0.4,8.8-1.7,11.9-5.4
	c1.1-1.3,2.7-2.2,3.6-3.5c1.5-2.1,0-4.6-2.6-4.7C946,414.4,945.2,414.3,944.5,414.2z"/>
<path class="st5" d="M968.7,212.6c0.7-0.1,1.2,0,1.4-0.2c1.4-1.5,3.2-1.2,5-1.3c1.5-0.1,2.2-1.6,1.2-2.7c-1.1-1.3-2.4-2.5-3.6-3.7
	c-1.2-1.1-2.5-1.9-3.7-2.9c-3.1-2.5-6.2-5-9.5-7.3c-0.7-0.5-2.7-0.4-3.2,0.2c-1,1.1-1.9,2.8-1.9,4.3c0.1,3.2,1.4,6.2,4.3,8.1
	c2.8,1.8,5.6,3.6,8.5,5.3C967.6,212.6,968.3,212.6,968.7,212.6z"/>
<path class="st5" d="M1061.3,299.2c0.1,7.5-2.9,14-9.4,20.2c-5,4.8-7.3,9.6-4.6,14.7c1.2,2.3,1.8,4.8,3.5,7.1
	c0.9,1.2,3.4,2.1,5.5,2.9c0.6,0.3,2.6,0.1,3.3-0.3c0.6-0.3,0.6-1.1,0.5-1.7c-0.5-4-1.1-8.1-1.5-12.1c-0.4-4.3,3.8-8.1,7.6-11.8
	c6.9-6.8,8.8-13.9,7.7-21.2c-0.1-1,0-2.1-0.8-2.9c-1-1-3.1-2.6-4.1-2.5c-2.3,0.3-5.4,1.4-6.3,2.5
	C1061.4,295.8,1061.6,297.9,1061.3,299.2z"/>
<path class="st5" d="M832,355c-1-4.1-1.9-8.2-5.3-11.2c-0.5-0.4-0.9-0.9-1.4-1.3c-1.4-1.4-4.4-1.8-5.8-0.7c-1.8,1.3-2.3,4.6-1.2,6.5
	c1.7,3,3.1,6,4.7,9c0.8,1.6,1.6,3.1,2.6,4.6c1.2,1.7,3.2,2.3,4.6,1.8c1.3-0.5,2.5-3,2.2-4.7C832.4,357.6,832.2,356.3,832,355z"/>
<path class="st5" d="M840.6,368.3c0.7,5.3,1.9,10.3,5.9,14c1,1,2.7,1.7,4.1,1.8c2.4,0.1,3.1-1.4,2-3.5c-0.4-0.9-0.9-1.4-0.5-2.7
	c0.3-0.9-0.6-2.5-1.4-3.6c-1.8-2.7-3.8-5.2-5.6-7.9c-0.4-0.5-0.3-1.4-0.7-1.9c-0.6-0.7-1.4-1.6-2.1-1.7c-1.3-0.2-1.5,1-1.5,2.1
	C840.7,366.1,840.6,367.3,840.6,368.3z"/>
<path class="st5" d="M812.1,450.5c4.3-0.1,8.5-0.9,12.8-1.5c-4.3,1.2-8.4,3.1-12.8,3.9V450.5z"/>
<path class="st5" d="M812.1,447.8c1.4-0.2,2.8-0.4,4.2-0.7c2.4-0.5,4.6-1.4,7-2.1c0.8-0.2,1.6-0.2,2.4-0.3c0,0.3,0.1,0.7,0.1,1
	c-4.6,1.2-9.2,2.3-13.7,3.5V447.8z"/>
<path class="st5" d="M815.1,436.3c-1,0.2-2,0.4-3,0.7v-1.2c0.9-0.3,1.9-0.7,2.8-1.1c1.2-0.5,2.5-0.7,4.1-1.1
	c-0.5,0.9-0.8,1.6-1.1,2.1C816.9,435.9,816,436.1,815.1,436.3z"/>
<path class="st5" d="M812.1,440.2c4-1,7.8-2.8,11.7-4.2c0.1,0.2,0.2,0.4,0.2,0.6c-3.6,2.6-7.8,3.7-12,4.8V440.2z"/>
<path class="st5" d="M900.3,379.9c0.6,3.8,5.3,7.5,9,6.9c0.7-0.1,1.5-1,1.8-1.7c0.2-0.6-0.1-1.6-0.6-2.1c-1.8-1.7-3.7-3.4-5.6-4.9
	c-0.8-0.6-2.3-1.4-2.9-1C901,377.5,900.8,378.9,900.3,379.9z"/>
<path class="st5" d="M812.1,445.1c1.6-0.3,3.2-0.6,4.8-0.9c2.8-0.5,5.5-1.4,8.6-2.2c-0.3,0.5-0.5,1.1-0.8,1.3c-1,0.5-2,0.9-3,1.1
	c-3.2,0.6-6.4,1.3-9.6,1.8V445.1z"/>
<path class="st5" d="M817.7,428.6c-1.9,0.5-3.8,1-5.6,1.4v-1c1.7-0.5,3.4-1.1,5-2c0.4-0.2,1.1,0.1,1.6,0.2
	C818.4,427.7,818.1,428.5,817.7,428.6z"/>
<path class="st5" d="M812.1,431.2c1.6-0.4,3.1-0.7,4.7-1.1c0.6-0.1,1.2,0.1,1.8,0.1c0,0.2,0,0.4,0.1,0.6c-0.8,0.3-1.6,0.7-2.4,0.8
	c-1.3,0.3-2.8,0.4-4.2,0.7V431.2z"/>
<path class="st5" d="M862.4,387.9c0.7,0.2,1.6,0.5,2.5,0.7c0.5,0.1,1.3-0.1,1.4-0.4c0.2-0.5,0.1-1.2-0.2-1.7
	c-0.6-1.1-1.3-2.2-2.1-3.3c-0.3-0.4-1.3-1-1.5-0.9c-0.6,0.4-1.2,1.2-1.2,1.8C861.5,385.2,862,386.4,862.4,387.9z"/>
<path class="st5" d="M812.1,420.1c0.9-0.2,1.9-0.3,2.8-0.4c0.1,0.2,0.2,0.4,0.3,0.6c-0.5,0.3-1.1,0.6-1.6,0.8
	c-0.5,0.1-0.9,0.2-1.4,0.3V420.1z"/>
<path class="st5" d="M752.6,432.7c-6.3,9.9-10.3,20.4-8.7,31.7c0.5-2.8,1.2-5.6,2.2-8.3c1.9-5.2,4.7-10.4,7.6-15.1
	c2.2-2.7,3.4-4.9,5.2-5.2c0.8-0.1,3.7-0.1,3.9,0.5c1,2.9,3,4.3,5.2,2.3c1-1,0.7-4.5-0.2-6.3c-1.3-2.7-3.3-5.1-5.4-7.3
	c-1.9-1.9-4.4-2.4-6.8-3.6c-1-0.5-4.1-4.2-5.5-3.9c0.4,1.2,2.3,6.1,3.1,7.1c1.2,1.5,2.7,2.8,4,4.1
	C755.6,430.1,753.7,431.1,752.6,432.7z"/>
<path class="st5" d="M974.9,475.1c-5.4-16.1-15.5-27.8-29-37.2c-3-2.1-8.3-3.6-14.1-2c-1.8,1.8-11.6,18.9-19.2,29.1
	c-1.8,2.4-2.8,5.5-4.2,8.3c0.4,0.3,0.8,0.6,1.3,1c1.2-1.1,2.5-2.1,3.7-3.3c2.5-2.4,5.1-4.8,7.5-7.3c6.1-6.5,14.4-7.7,22.3-9.8
	c6.3-1.7,11.7,1.9,13.5,8.1c0.9,3,1.7,6,2.7,9.7c-2.9,1-6.5,1.8-9.7,3.4c-5.5,2.8-10.7,6.2-16,9.3c-4.2,2.5-8.5,4.7-12.4,7.6
	c-3.3,2.5-6.1,5.7-8.9,8.9c-0.6,0.7-0.1,2.4-0.1,3.6c1.2-0.2,2.7,0,3.7-0.6c9.9-5.6,19.5-11.6,29.6-16.7c3.9-2,8.8-2.1,13.3-2.7
	c1.2-0.2,3.5,0.5,3.8,1.3c0.9,2.5,1.8,5.3,1.4,7.8c-1,5.5-6,7.3-10.4,9.6c-12.2,6.3-25.4,8.6-38.7,10.4c-4.3,0.6-8.4,1.7-12.6,2.8
	c-0.6,0.2-1.1,1.1-1.6,1.6c0.7,0.6,1.2,1.5,2,1.8c11.7,4.5,23.5,3.5,35.2-0.2c7.7-2.5,15.2-5.5,23.9-7.5c-1.2,2.1-5.9,4.7-7.5,6.2
	c-8.1,7.2-13.9,11.6-24.2,14.4c-8.3,2.3-16.7,4-25,6.1c-1,0.2-2.1,0.5-2.7,1.1c-1,1.1-1.7,2.6-2.5,3.9c1.4,0.6,2.9,1.8,4.1,1.6
	c10.7-1.5,21.3-3.4,32.4-4.7c-5.4,2.6-10.7,5.6-16.4,7.6c-6.8,2.5-13.8,4.8-21,6c-14.2,2.3-28.5,4.6-42.9,5.5
	c-0.5,0.2-1.1,0.3-1.7,0.3c-7.4,0-15.8-1.4-22.4-6.2c-4.2-2.7-7.3-7.2-10.7-11.3c-2.1-2.6-3.6-5.1-4.8-8.3c-0.7-1.9-1.1-3.9-2.7-5.3
	c-4.6-3.9-5.4,0.6-6.9,4.3c-5.5,13.6-23,33.3-39.4,27.1c-0.3,0-0.5,0-0.8,0c-15.1-0.9-30.2-3.3-45.2-5.8c-7.1-1.2-14.1-3.5-21-6
	c-5.6-2.1-10.9-5.1-16.4-7.7c11.1,1.4,21.7,3.3,32.4,4.9c1.3,0.2,2.7-1.1,4.1-1.6c-0.8-1.3-1.5-2.8-2.5-3.9
	c-0.6-0.7-1.8-0.9-2.7-1.1c-8.3-2.1-16.7-3.9-25-6.2c-10.4-2.9-20.1-7.2-28.1-14.5c-1.7-1.5-2.4-4.1-3.5-6.2
	c8.7,2.1,16.2,5.1,23.9,7.6c11.6,3.8,23.4,4.9,35.2,0.4c0.8-0.3,1.3-1.2,2-1.8c-0.5-0.6-1-1.5-1.6-1.6c-4.2-1-8.4-2.2-12.6-2.8
	c-13.4-1.8-26.5-4.2-38.7-10.5c-4.4-2.3-9.3-4.1-10.3-9.6c-0.4-2.5,0.5-5.3,1.4-7.8c0.3-0.8,2.6-1.5,3.8-1.3
	c4.5,0.7,9.4,0.8,13.3,2.8c10.1,5.2,19.7,11.2,29.6,16.8c1,0.6,2.4,0.4,3.7,0.6c0-1.2,0.5-2.9-0.1-3.6c-2.8-3.2-5.6-6.4-8.9-8.9
	c-3.8-2.9-8.2-5.1-12.4-7.6c-5.3-3.2-10.5-6.5-16-9.4c-3.2-1.7-6.8-2.4-9.7-3.5c1.1-3.7,1.9-6.7,2.8-9.6c1.8-6.2,7.2-9.7,13.5-8.1
	c7.9,2.1,16.2,3.4,22.3,9.9c2.4,2.6,5,4.9,7.5,7.3c1.2,1.1,2.5,2.2,3.7,3.3c0.4-0.3,0.8-0.6,1.3-1c-1.4-2.8-2.4-5.9-4.2-8.3
	c-7.6-10.2-28.8-33.5-31.8-31.4c-13.5,9.3-25,25.2-30.5,41.3c-6.6,19.5-3.2,36.9,8.7,52.5c7.4,9.7,20.2,10,29.8,17.5
	c7.8,6.2-0.4,79.1,36.2,170.7c4.8,1.7,9.5,3.3,14.2,4.8c-0.3-5.9,0-10.7,0.1-14c0.1-8.1,1.9-16.3,3.1-24.4c3,7,4.4,13.8,7.2,20.1
	c2.7,6.3,6.6,12.1,10.3,18c1,1.7,3,2.8,4.6,4.1c1.3-2,3.2-3.9,3.7-6.1c1.3-5.4,2-10.9,3-16.9c2.6,7.2,10.1,23.7,11.4,25.3
	c1.3-1.4,2.7-2.7,3.7-4.2c2.4-3.9,4.6-8,7.6-13.1c0,1.4,0.9,4.7,0.9,6.2c1.1,2.2,5.5,7.8,8,10c0.7,1,3.9,3.8,4,3.7
	c0.6,0.6,0.6,0.5,1.2,1.1c0.2-1.4,6.8-19.5,7.6-20.4c0.7,0.7,4.2,12.9,5,14.6c0.7,1.5,1.2,5.1,1.4,7c4.5-4.3,8.2-7.2,11-10.8
	c1.5-2,3.8-10,3.8-11.8c2.9,5.2,5.1,9.2,7.5,13.1c1,1.6,2.5,2.8,3.7,4.2c1.3-1.6,3.1-2.9,3.9-4.7c2.7-6.6,5-13.3,7.6-20.5
	c1,6,1.6,11.5,2.9,16.9c0.5,2.2,2.4,4.1,3.7,6.1c1.6-1.4,3.5-2.4,4.6-4.1c3.7-5.8,7.6-11.6,10.3-17.9c2.7-6.3,4.2-13.1,7.2-20.1
	c1.1,8.1,2.9,16.3,3,24.4c0,3.4-0.1,10.4-0.5,15.2c0,0.1-0.2,0.1-0.3,0.2c8.8-3.1,13.6-5.8,13.7-6.1
	c29.4-61.6,26.9-163.2,34.8-169.3c9.6-7.5,24.4-8.9,31.9-18.6C977.9,512,981.4,494.6,974.9,475.1z M760,565.7
	c8.3-0.6,16.5,3.1,25.1-1.1c13.1-6.4,22.3-15.1,25.7-28.3c3.5,12.9,12.6,21.5,25.5,27.9c8.6,4.2,16.8,0.6,25.1,1.2
	c1.8,0.1,3.5-0.2,5.5-0.3c-1.7,9.5-6.2,17.5-8,27.5c-1.5-2.5,0.1-3.2-0.6-4.9c-1.7-4.8-7.8-14.2-11.7-16.2c-4.1-2.1-5.4,7.7-7,12.4
	c-1.1,3.2-2.8,6.1-4.3,9.2c-0.7-0.1-3.5-7.1-4.2-7.2c-2.1-2.8-5.2-11.5-7.2-14.4c-4.6-6.9-6.8,3.8-10.4,11.2
	c-0.7,1.5-2.8,9.4-3.5,11.2c-0.6-1.5-3.5-8.4-4.1-9.7c-3.6-7.4-4.9-19.5-9.6-12.6c-2,2.9-6.3,19.1-8.5,21.9c-0.7,0-1.3,2.8-2,2.8
	c-1.4-3-3.3-8.7-4.3-11.8c-1.6-4.7-4.3-15-8.4-12.9c-3.9,2-8.5,11.8-10.3,16.6c-0.6,1.7-1.9,3.2-3.5,5.8c-1.8-10-3.3-18.8-5-28.3
	C756.5,565.5,758.3,565.8,760,565.7z M729.1,633.3c-1.9-2.6-4.2-4.9-5.3-7.6c-6.1-16-9.8-32.7-10.5-49.9c-0.2-4.7-0.4-9.4-0.2-14
	c0-0.9,2.2-2.6,3.2-2.5c10.3,1.5,20.6,3.4,31.6,5.2C733.7,585.8,735.1,610,729.1,633.3z M866.6,669.9c-2.5,12-7.7,21.6-16.2,29.2
	c-6.8,6.1-27.1,5.2-38.4,5.2c-19.6,0-34.6,1.4-41.5-4.8c-8.4-7.6-13.6-17.2-16.1-29.2c-2.7-13-4.5-25.3-0.5-38.7
	c3.6-11.8,8.3-20.9,19.7-24.9c8.1-2.8,17.2-1.4,21.6,2.9c7.4,7.3,7.7,8.2,15.6,9.1c5.4,0,9.8-1.9,14.4-8.1c0.1-0.1,0.1-0.1,0.2-0.2
	c6.3-6.2,13.8-7.2,22.2-4.2c11.4,4,16,13.1,19.6,25C871.2,644.5,869.3,656.8,866.6,669.9z M908.1,575.6
	c-0.8,17.2-4.4,33.8-10.6,49.8c-1.1,2.7-3.4,4.9-5.3,7.6c-5.9-23.3-4.4-47.5-18.6-68.9c11-1.8,21.3-3.6,31.6-5.1
	c1-0.1,3.1,1.6,3.2,2.5C908.5,566.2,908.3,570.9,908.1,575.6z"/>
<path class="st5" d="M640.2,487.5c-4.5-1-9-1.8-13.6-2.6c-4.2-0.7-7-3-8.9-6.9c-2.4-5.1-4.7-10.3-8.6-14.4c-1.5-1.6-3.5-2.9-5.4-4.2
	c-2-1.3-4.3-2.2-6.2-3.6c-1.2-0.9-2.5-2.1-3.1-3.5c-1.2-2.9-2.4-6-2.9-9.1c-0.4-2.2,0.1-4.5,0.6-6.8c0.8-4.1,0.3-8.1-0.5-12.1
	c-0.9-4.4-2-8.8-3.2-13.2c-0.4-1.4-1.2-2.7-1.8-4.2c2.3-1.1,3.6,0.6,4.9,1.6c1.3,1,2.3,2.5,3.3,3.8c4,5.5,7.8,11.1,9.6,17.8
	c1,3.7,2.4,7.4,3.9,11c0.5,1.2,1.3,2.4,2.3,3.2c5,3.7,7.2,9,9.4,14.5c1.8,4.7,4.6,8.7,9.2,11.5c5,3.1,10.1,5.6,16.1,5.9
	C646.7,476.3,645.3,488.6,640.2,487.5z"/>
<path class="st5" d="M456.9,125.3c18.6-7.6,39.2-10.9,58.9-7.4c12.5,2.2,25.1,7,37.5,4.6c-8.9,8.6-21.2,12.4-33.1,15.9
	c-5.4,1.6-10.8,3.2-16.2,4.8c-10.4,3.1-22.9,5.7-30.9-1.6c-6-5.5-8.5-16.1-16.7-17.1"/>
<path class="st5" d="M1173.8,128c-18.6-7.6-39.2-10.9-58.9-7.4c-12.5,2.2-25.1,7-37.5,4.6c8.9,8.6,21.2,12.4,33.1,15.9
	c5.4,1.6,10.8,3.2,16.2,4.8c10.4,3.1,22.9,5.7,30.9-1.6c6-5.5,8.5-16.1,16.7-17.1"/>
<path class="st5" d="M900,787.7c-0.4-0.7-0.8-1.4-1.2-2c-3.3-5.8-4-12.1-4.8-18.4c-1.2-9.5-3.3-18.8-9.3-27l0,0
	c-0.4-0.6-1.1-0.8-1.8-0.6c-7.7,2.3-15.7,3.6-23.6,5.4c3.6,1.3,0.2,29-2.8,35.8c-1.7,3.8-8.5,12.8-15.4,17.1
	c6.7-7.8,10.3-18.2,9.9-28.5c-4.2,9-16.2,22.9-22,30.9c-1.6-3.8,2.3-22.8,2.5-26.9c-2.1,6.2-10,15-13.7,20.4
	c-0.2-5.2-0.9-10.4-2.2-15.4c-0.5-1.8-2.1-4.1-3.7-3c-1,9.7-3.8,19.2-8.4,27.8c-7-9.4-11.9-20.4-14.1-32c-0.2-0.9-0.3-1.8-0.3-2.8
	c-2.2,12.1-3.4,17.2,2.1,28.7c-6.7-5-10.1-10.1-13.8-17.6c-4.1-8.5-5.5-11.3-9.6-19.7c-1.7,7-1.2,8.8-1.7,16
	c-0.3,5.2,1.4,11.9,2.5,16.7c-7.4-10.2-14.7-20.8-15.7-33.4c-0.4-5.1,0.3-10.2,2.1-15c-9.5-2.5-19.8-5.5-28.6-9.2
	c-0.8-0.3-1.7,0-2.1,0.8c-3,7.1-4.3,21.1-5.4,27.7c-1,6.3-2,12.5-5.6,18.1c-1.4,2.1-2.9,4.2-4.3,6.3c0.2,0.3,0.2,0.3,0.4,0.5
	c2.7-1.1,5.5-2.2,8.2-3.4c1.5-0.6,2.9-1.3,4.2-2.1c0.1-0.1,0.2-0.1,0.3-0.2c0.7-0.5,1.6-0.5,2.2,0c0.2,0.2,0.4,0.5,0.5,0.7
	c0.5,1.8,0.4,3.6,0.9,5.4c0.8,2.7,1.6,5.5,2.8,8c1.2,2.5,3,4.8,4.7,7.1c2.2,3,3.7,6.4,7.2,8.6c5.2,3.3,9.1,7.6,12.5,12.4
	c0.7,1,1.4,2.1,2.1,3.1c0.6,1,2.1,1.1,2.7,0.1c0.1-0.2,0.3-0.3,0.5-0.4c0.6-0.3,1.3-0.1,1.7,0.3c0.9,0.8,1.9,1.6,2.7,2.5
	c2.8,2.9,5.9,5.6,7.5,9.2c0.7,1.6,2,3.1,3.3,4.7c0.5,0.7,1.5,0.8,2.2,0.3c3.8-2.8,6.8-5.8,8.3-9.9c0.1-0.4,0.5-0.7,0.8-1
	c0.6-0.5,1.5-0.5,2.1,0c0.3,0.2,0.5,0.4,0.7,0.7c0.7,0.8,1.3,1.7,1.9,2.5c3.3,5,7.8,9.5,9.4,15.4c0.1,0.2,0.4,0.3,0.9,0.7
	c0.8-2.2,1.8-4.1,2.3-6.1c0.3-1.1,0.6-2.2,0.9-3.3c0.5-1.5,2.7-1.5,3.1,0.1c0.3,1.1,0.6,2.2,0.8,3.4c0.4,2,1.3,4,2.1,6.2
	c0.5-0.4,0.9-0.5,0.9-0.7c1.9-5.8,6.5-10.1,10.1-14.9c0.6-0.8,1.3-1.7,2-2.5c0.2-0.2,0.5-0.5,0.8-0.7c0.6-0.5,1.5-0.4,2.1,0.1
	c0.3,0.3,0.6,0.7,0.8,1c1.4,4.1,4.3,7.3,7.9,10.2c0.7,0.6,1.7,0.5,2.3-0.2c1.4-1.6,2.7-3,3.5-4.6c1.8-3.6,4.9-6.2,7.9-8.9
	c0.9-0.8,1.9-1.6,2.8-2.4c0.5-0.4,1.2-0.5,1.7-0.2c0.2,0.1,0.3,0.2,0.4,0.5c0.6,1,2.1,1,2.7,0c0.7-1,1.4-2,2.2-3
	c3.6-4.6,7.7-8.7,13-11.8c3.6-2.1,5.2-5.4,7.6-8.3c1.8-2.2,3.7-4.5,5-6.9c1.4-2.5,2.3-5.2,3.2-7.9c0.6-1.7,0.6-3.6,1.1-5.4
	c0.1-0.3,0.3-0.5,0.5-0.7c0.6-0.6,1.6-0.5,2.2,0c0.1,0.1,0.2,0.2,0.3,0.2c1.3,0.8,2.7,1.6,4.1,2.3c1.1,0.5,2.1,1,3.2,1.5
	C902.5,792.4,902.5,792.5,900,787.7z"/>
<path class="st5" d="M614.2,627c-13.4,6.6-56.1,15.5-60.8,29.7c-5.9-27.2,9-50.8,2.2-83.9c-7.4,5.9-17,15.1-24.3,21
	c0.1-15.4,1-36.8,9.2-49.9c-16.1,14.6-33,28.5-54.2,33c4.4-10.3-3.3-26.6-4.1-37.8c-1.2-18.5-14-31.6-1.3-57.7
	c-0.1-0.5,0.1-1.1,0.5-1.7c1-1.7,2.1-3.4,3.2-5.1c0.3-0.5,0.7-1,1.1-1.5c1.1-1.7,2.2-3.4,3.5-5.2c2.9-5.6,5.6-11.3,8.3-16.9
	c0.2-0.4,0.4-0.8,0.4-1.2c0.7-3.6,1.4-7.2,1.9-10.9c0.9-5.8,1.9-11.6,2.5-17.5c0.7-7.8,0.9-15.6,1.4-23.4c0.2-4.4,0.6-8.7,0.7-13.1
	c0.1-4.2-0.1-8.4-0.1-12.7c0-1-0.1-2-0.2-3.6c-1.3,1.3-2.3,2-3,3c-2.3,3-4.6,6.1-6.7,9.3c-3.3,5-6.7,9.9-9.6,15.1
	c-3.2,5.8-6.1,11.7-9,17.7c-1.7,3.5-3.2,7.1-4.7,10.7c-2.2,5.1-4.7,10.1-6.7,15.3c-1.6,4.1-2.7,8.4-3.9,12.7
	c-1.3,4.5-2.4,9.1-3.8,13.7c-1.4,4.7-1.4,9.6-3.1,14.3c-1.9,5-3,10.3-4,15.5c-1.7,9.2-3.2,18.3-7,26.9c-2.2,4.9-4.8,9.4-8.4,13.3
	c-0.8,0.9-1.6,1.7-2.4,2.6c0.1,0.2,0.2,0.5,0.3,0.7c4.4-0.9,9-1.6,13.3-2.9c4.1-1.2,6.4,0.3,6.1,4.5c-0.2,2.3-0.2,4.6-0.1,6.9
	c0.3,8,0.5,16,1.3,23.9c0.8,8.5,2.4,17,3.2,25.5c0.9,9-0.1,17.9-2.6,26.9c1-0.4,2-0.9,3.1-1.2c8-2.4,16.1-4.7,24.1-7.1
	c4.2-1.3,8.5-2.2,12.5-4.1c4.8-2.3,9.3-5.3,13.9-8.1c1.6-1,2.9-2.5,4.4-3.7c1.6-1.3,2.9-0.9,3,1c0.1,1.4-0.1,2.8-0.4,4.2
	c-0.5,2.2-1.6,4.4-1.9,6.6c-0.7,5.3-1.2,10.6-1.7,15.9c-0.5,5-0.1,9.9,1.5,14.9c0.7-1.6,1.3-3.3,2.2-4.7c3.1-4.7,6.3-9.3,9.6-13.8
	c0.3-0.5,1.3-0.6,2-0.7c0.6,0,1.3,0.3,2.1,0.5c0.2,0.6,0.7,1.5,0.6,2.2c-0.4,3-0.7,6-1.6,8.9c-2,6.5-1.7,13.2-0.8,19.7
	c1,7.2,3.1,14.3,4.1,21.5c1.1,7.9,2.8,15.7,1.4,24.1c1-0.1,1.8-0.1,2.5-0.3c1-0.3,1.8-0.9,2.8-1.1c4.2-1,8.5-1.9,12.8-2.7
	c5-1,10-1.7,15-2.7c6.4-1.3,12.9-2.3,19.1-4.4c39.7-13.2,69.8-50.3,91.7-74.2c-0.5-0.6-0.8-1-1.1-1.4C631.2,610,632.1,618,614.2,627
	z"/>
<path class="st5" d="M1186.7,530.5c-3.6-4-6.2-8.4-8.4-13.3c-3.8-8.6-5.3-17.8-7-26.9c-1-5.2-2.1-10.5-4-15.5
	c-1.7-4.7-1.7-9.6-3.1-14.3c-1.4-4.5-2.5-9.1-3.8-13.7c-1.2-4.3-2.4-8.6-3.9-12.7c-2-5.2-4.4-10.2-6.7-15.3c-1.6-3.6-3-7.2-4.7-10.7
	c-2.9-5.9-5.7-11.9-9-17.7c-2.9-5.2-6.3-10.1-9.6-15.1c-2.1-3.2-4.4-6.2-6.7-9.3c-0.7-0.9-1.7-1.7-3-3c-0.1,1.6-0.2,2.6-0.2,3.6
	c-0.1,4.2-0.2,8.5-0.1,12.7c0.1,4.4,0.5,8.7,0.7,13.1c0.4,7.8,0.7,15.6,1.4,23.4c0.5,5.8,1.6,11.6,2.5,17.5
	c0.6,3.6,1.3,7.3,1.9,10.9c0.1,0.4,0.3,0.8,0.4,1.2c2.8,5.7,5.4,11.4,8.3,16.9c1.2,2.4,3.1,4.4,4.6,6.7c1.1,1.7,2.2,3.4,3.2,5.1
	c0.7,1.1,0.6,2.1,0.1,2.8c11.4,25-0.9,38-2.1,56c-0.7,11.2-8.5,27.5-4.1,37.8c-21.2-4.5-38.2-18.4-54.2-33
	c8.2,13.1,9.2,34.5,9.2,49.9c-7.4-5.9-17-15.1-24.3-21c-6.8,33.1,8.1,56.7,2.2,83.9c-4.7-14.2-47.5-23.1-60.8-29.7
	c-17.6-8.8-17.1-16.7-57.8-13.7c-0.1,0.1-0.2,0.1-0.2,0.2c-0.5,0.4,0,0-0.8,1c26.3,16.5,57.7,56.7,76.2,68.1
	c4.7,2.9,9.3,5.7,14.7,7.1c6.3,1.6,12.7,3,19.1,4.4c5,1,10,1.8,15,2.7c4.3,0.8,8.5,1.8,12.8,2.7c1,0.2,1.8,0.8,2.8,1.1
	c0.7,0.2,1.4,0.2,2.5,0.3c-1.4-8.4,0.4-16.3,1.4-24.1c1-7.2,3.2-14.3,4.1-21.5c0.9-6.5,1.1-13.2-0.8-19.7c-0.9-2.9-1.2-5.9-1.6-8.9
	c-0.1-0.8,0.4-1.6,0.6-2.2c0.8-0.2,1.5-0.5,2.1-0.5c0.7,0,1.7,0.2,2,0.7c3.3,4.5,6.5,9.1,9.6,13.8c0.9,1.4,1.4,3,2.2,4.7
	c1.7-5,2-9.9,1.5-14.9c-0.5-5.3-1-10.6-1.7-15.9c-0.3-2.2-1.3-4.4-1.9-6.6c-0.3-1.3-0.5-2.8-0.4-4.2c0.2-1.9,1.5-2.3,3-1
	c1.5,1.2,2.8,2.7,4.4,3.7c4.6,2.8,9.1,5.8,13.9,8.1c3.9,1.8,8.3,2.8,12.5,4.1c8,2.4,16.1,4.7,24.1,7.1c1,0.3,2,0.8,3.1,1.2
	c-2.5-9-3.5-17.9-2.6-26.9c0.9-8.5,2.4-17,3.2-25.5c0.7-7.9,0.9-15.9,1.3-23.9c0.1-2.3,0-4.6-0.1-6.9c-0.3-4.2,2-5.7,6.1-4.5
	c4.3,1.3,8.9,2,13.3,2.9c0.1-0.2,0.2-0.5,0.3-0.7C1188.3,532.3,1187.5,531.4,1186.7,530.5z"/>
<path class="st5" d="M958.1,580.7c9.7,4.3,20.3,6.2,21.9,6.6c21.4,5.5,28,6.4,52,19.2c5.9,3.1,10,1.1,9.2,3.1
	c1.3-26.3-2.3-55.1-17.6-76.6c2.1,13.6,2,27.6-0.3,41.2c-24.6,0.3-49.2,0.6-73.8,0.8"/>
<path class="st5" d="M1030.5,519.2c9.9,11.5,24,14,29,19.4c4.9,5.4,9.2,11.4,14.8,16.3c-2.6-5.4-5.2-10.8-6.5-16.5
	c-0.7-3-1-6-1.5-8.9c-1.7-9.5-5.7-18.6-11.7-26.5c1.2,3.1,1.7,6.5,2.1,9.8c0.6,4.8,1.3,9.7,1.9,14.5
	C1049.7,523.1,1038.5,524.6,1030.5,519.2"/>
<path class="st5" d="M1099.4,428.9c0.5,13.5,6.2,27.7,12.6,39.6c3.5,6.4,7.7,12.4,9.9,19.4c5.2,16.5-2.3,34.2-1.5,51.5
	c-1.7-12.2-9.5-22.8-18.7-31c-9.1-8.3-19.7-14.8-29.1-22.8c3,2.2,6.9,2.6,10.5,2.9c6.9,0.6,13.8,1.2,20.7,1.7
	c0.8-4.3-0.4-8.6-1.5-12.8c-3.3-12.2-6.6-24.5-7.2-37c-0.7-12.6,1.4-25.7,8.3-36.3C1099.6,411.7,1098.2,420.5,1099.4,428.9"/>
<path class="st5" d="M655.5,591.9c-9.7,4.3-20.3,6.2-21.9,6.6c-21.4,5.5-28,6.4-52,19.2c-5.9,3.1-10,1.1-9.2,3.1
	c-1.3-26.3,2.3-55.1,17.6-76.6c-2.1,13.6-2,27.6,0.3,41.2c24.6,0.3,49.2,0.6,73.8,0.8"/>
<path class="st5" d="M586.8,530.4c-9.9,11.5-24,14-29,19.4c-4.9,5.4-9.2,11.4-14.8,16.3c2.6-5.4,5.2-10.8,6.5-16.5
	c0.7-3,1-6,1.5-8.9c1.7-9.5,5.7-18.6,11.7-26.5c-1.2,3.1-1.7,6.5-2.1,9.8c-0.6,4.8-1.3,9.7-1.9,14.5
	C567.5,534.4,578.8,535.8,586.8,530.4"/>
<path class="st5" d="M514.2,440.1c-0.5,13.5-6.2,27.7-12.6,39.6c-3.5,6.4-7.7,12.4-9.9,19.4c-5.2,16.5,2.3,34.2,1.5,51.5
	c1.7-12.2,9.5-22.8,18.7-31c9.1-8.3,19.7-14.8,29.1-22.8c-3,2.2-6.9,2.6-10.5,2.9c-6.9,0.6-13.8,1.2-20.7,1.7
	c-0.8-4.3,0.4-8.6,1.5-12.8c3.3-12.2,6.6-24.5,7.2-37c0.7-12.6-1.4-25.7-8.3-36.3C514,422.9,515.4,431.7,514.2,440.1"/>
<path class="st5" d="M868.6,431.8c6.3,9.9,10.3,20.4,8.7,31.7c-0.5-2.8-1.2-5.6-2.2-8.3c-1.9-5.2-4.7-10.4-7.6-15.1
	c-2.2-2.7-3.4-4.9-5.2-5.2c-0.8-0.1-3.7-0.1-3.9,0.5c-1,2.9-3,4.3-5.2,2.3c-1-1-0.7-4.5,0.2-6.3c1.3-2.7,3.3-5.1,5.4-7.3
	c1.9-1.9,4.4-2.4,6.8-3.6c1-0.5,4.1-4.2,5.5-3.9c-0.4,1.2-2.3,6.1-3.1,7.1c-1.2,1.5-2.7,2.8-4,4.1
	C865.6,429.2,867.5,430.2,868.6,431.8z"/>
<path class="st5" d="M875,467.2c-4.5-3.7-8.4-8.6-14.9-8.7c-4.5-0.1-25.2,6-30.7,7.3c-5.4,1.3-11.8,3.3-17.3,4
	c-5.6-0.7-13.7-2.6-19.1-4c-5.5-1.4-26.2-7.4-30.7-7.3c-6.5,0.1-10.4,5.1-14.9,8.7c-0.3,0.3-0.1,2.2,0.4,2.5
	c2.1,1.5,4.7,2.3,6.9,3.6c3.8,2.2,8,3.8,12.3,5c3.4,0.9,6.4,1.8,11.1,3.8c4.4,1.9,7.8,3.8,11,7.4c2.4,2.8,2.8,3.2,3.6,6.7
	c-2.1-0.6-4.7-2.7-6.6-3.7c-2.2-1.1-4.4-2.4-6.4-3.8c3.6,4.6,10.8,17.1,13,22.8c2.6,6.7,7.6,10.9,13.9,15.7c4.9,1.6,3.4,0.6,4.6,0.9
	h0.1c1.1-0.3-0.3,0.7,4.6-0.9c6.3-4.7,11.4-8.9,13.9-15.7c2.2-5.6,9.3-18.1,13-22.8c-2.1,1.3-4.2,2.6-6.4,3.8
	c-1.9,1-4.6,3.1-6.6,3.7c0.9-3.5,1.2-3.9,3.6-6.7c3.2-3.6,6.6-5.5,11-7.4c4.7-2,7.7-2.9,11.1-3.8c4.3-1.2,8.5-2.8,12.3-5
	c2.2-1.3,4.8-2.2,6.9-3.6C875.1,469.4,875.4,467.5,875,467.2z"/>
<g>
	<g>
		<path class="st1" d="M818.5,949.8l-0.9-2c-0.5-1-1.7-1.4-2.7-1c-1.1,0.4-1.6,1.5-1.1,2.5l1,2.3l8.3,18c0.1,0.1,0.2,0.2,0.2,0.3
			c0,0,0,0,0,0c0,0.1,0.1,0.1,0.2,0.2c0,0.1,0,0.1,0,0.1c0.1,0.1,0.2,0.1,0.3,0.2c0,0,0,0,0,0c0.1,0.1,0.3,0.2,0.3,0.2c0,0,0,0,0,0
			s0,0,0,0c0.1,0,0.2,0,0.3,0.1c0,0,0.1,0,0.1,0c0.1,0,0.3,0,0.4,0c0.1,0,0.2,0,0.4,0c0,0,0.1,0,0.1,0c0.1,0,0.2-0.1,0.3-0.1
			c0,0,0,0,0.1,0c0.1,0,0.2-0.1,0.3-0.2c0.1,0,0.1,0,0.1,0c0.1-0.1,0.2-0.1,0.2-0.2c0,0,0,0,0.1-0.1c0-0.1,0.2-0.1,0.2-0.2
			c0,0,0,0,0,0c0.1-0.1,0.1-0.2,0.2-0.3l0.4-0.8l-2.3-4.9L818.5,949.8z M899.4,949.7c0.6-0.9,0.5-2-0.5-2.6c-1-0.7-2.2-0.5-2.9,0.4
			l-4.3,5.4l2.6,3.2L899.4,949.7z M835.2,946.8c-1-0.4-2.3,0-2.7,1l-5.5,11.9l2.3,4.9l7.1-15.4C836.8,948.3,836.3,947.2,835.2,946.8
			z M786,939.4c-0.9-0.9-2.1-1.4-3.4-1.4c-1.3,0-2.5,0.5-3.4,1.4l-15.4,15.4c-1.8,1.9-1.8,4.9,0,6.7l15.4,15.4
			c0.9,0.9,2.1,1.4,3.4,1.4c1.3,0,2.5-0.5,3.4-1.4l15.4-15.4c0.9-0.9,1.4-2.1,1.4-3.4c0-1.3-0.5-2.5-1.4-3.4L786,939.4z M799,959.5
			l-15,15c-0.7,0.7-2,0.7-2.8,0l-15-15c-0.8-0.8-0.8-2,0-2.8l15-15c0,0,0,0,0,0v12.4c-0.6,0.2-1.2,0.5-1.6,1c-0.8,0.8-1.2,1.8-1.2,3
			c0,1.1,0.4,2.2,1.2,3c0.8,0.8,1.9,1.2,3,1.2c1.1,0,2.2-0.4,3-1.2c1.6-1.6,1.6-4.3,0-5.9c-0.5-0.5-1-0.8-1.6-1v-12.4c0,0,0,0,0,0
			l15,15c0.4,0.4,0.6,0.9,0.6,1.4C799.5,958.7,799.3,959.2,799,959.5z M892.2,958.6l-2.6-3.2l-6.4-8c-0.7-0.9-2-1.1-2.9-0.4
			c-1,0.6-1.1,1.8-0.5,2.6l7.2,9l-7.2,9c-0.6,0.8-0.5,2,0.5,2.6c0.3,0.2,0.8,0.4,1.2,0.4c0.6,0,1.3-0.3,1.7-0.8l6.4-8l6.9,8.6
			c0.4,0.5,1,0.7,1.6,0.7c0.4,0,0.9-0.2,1.3-0.5c0.9-0.7,0.9-1.9,0.2-2.8L892.2,958.6z M858.4,946.4c-6.2,0-11.2,5.5-11.2,12.2
			c0,6.6,5,12.1,11.2,12.1c3.8,0,7.3-2.1,9.3-5.5c0.5-0.9,0.2-2-0.6-2.7c-0.3-0.2-0.6-0.3-1-0.3c-0.7,0-1.2,0.4-1.6,0.9
			c-1.3,2.3-3.7,3.7-6.2,3.7c-3.7,0-6.8-3-7.4-7h16.6c1,0,1.9-0.8,1.9-1.8l0-0.2C869.1,951.3,864.3,946.4,858.4,946.4z M851.3,955.9
			c1-3.4,3.8-5.7,7.1-5.7c3.3,0,6.1,2.3,7,5.7H851.3z M953.8,966.7c0,0-2.9,0-2.9,0c-1.1,0-2.3-0.6-2.3-2.4V945
			c0-1.1-0.9-2.1-2.1-2.1c-1.1,0-2.1,1-2.1,2.1v19.3c0,3.8,2.5,6.3,6.5,6.3c0.1,0,2.9,0,2.9,0c1-0.1,1.8-0.9,1.8-2
			C955.6,967.6,954.8,966.8,953.8,966.7z M985.3,960.3c-0.9-1.3-2.2-2.2-3.8-2.9c-1.5-0.7-3.3-1.1-5.3-1.5h-0.1
			c-2.1-0.3-3.8-0.9-4.8-1.5c-0.5-0.3-0.8-0.6-1-0.9c-0.2-0.3-0.3-0.6-0.3-1c0-0.7,0.4-1.5,1.5-2.2c1-0.7,2.6-1.2,4.3-1.2
			c2.3,0,4.2,1,6.1,2.2c0.9,0.6,2.1,0.3,2.7-0.5c0.6-0.8,0.3-1.9-0.5-2.5c-1.9-1.1-4.7-2.8-8.3-2.8c-2.5,0-4.8,0.7-6.6,1.8
			c-1.8,1.2-3.1,3-3.1,5.1c0,1,0.3,2,0.9,2.8c0.8,1.2,2.1,2.1,3.5,2.7c1.4,0.6,3.1,1,4.9,1.4h0.1c2.2,0.4,4.1,1,5.2,1.6
			c0.6,0.3,0.9,0.7,1.1,1c0.2,0.3,0.3,0.7,0.3,1.1c0,0.9-0.5,1.7-1.6,2.5c-1.1,0.8-2.9,1.3-4.8,1.3c-2.7,0-5.6-1.4-7.3-2.7
			c-0.8-0.6-2.1-0.5-2.8,0.2c-0.6,0.8-0.5,1.9,0.3,2.5c2.2,1.6,5.6,3.4,9.8,3.5c2.7,0,5.2-0.7,7.1-2c1.9-1.3,3.3-3.2,3.3-5.4
			C986.2,962.2,985.9,961.1,985.3,960.3z M922.1,946.4c-6.2,0-11.2,5.5-11.2,12.2c0,6.6,5,12.1,11.2,12.1c3.8,0,7.3-2.1,9.3-5.5
			c0.5-0.9,0.2-2-0.6-2.7c-0.3-0.2-0.6-0.3-1-0.3c-0.7,0-1.2,0.4-1.6,0.9c-1.3,2.3-3.7,3.7-6.2,3.7c-3.7,0-6.8-3-7.4-7h16.6
			c1,0,1.9-0.8,1.9-1.8l0-0.2C932.7,951.3,928,946.4,922.1,946.4z M915,955.9c1-3.4,3.8-5.7,7.1-5.7c3.3,0,6.1,2.3,7,5.7H915z"/>
	</g>
	<g>
		<path class="st1" d="M649.7,959.8c0,0.7,0,1.4,0,2c0,0.6,0.1,1.2,0.2,1.7h-1.1l-0.4-1.5h-0.1c-0.3,0.5-0.7,0.9-1.2,1.2
			c-0.5,0.3-1.2,0.5-1.9,0.5c-1.4,0-2.5-0.4-3.1-1.3c-0.7-0.9-1-2.3-1-4.2c0-1.8,0.4-3.2,1.3-4.1c0.9-0.9,2-1.4,3.5-1.4
			c0.5,0,0.9,0,1.2,0.1c0.3,0.1,0.6,0.1,1,0.3v-4.4h1.7V959.8z M645.4,962.2c0.7,0,1.3-0.2,1.7-0.6c0.4-0.4,0.7-0.9,0.9-1.7v-5.3
			c-0.3-0.2-0.5-0.3-0.9-0.4c-0.3-0.1-0.8-0.1-1.3-0.1c-1,0-1.7,0.3-2.3,1c-0.6,0.6-0.8,1.7-0.8,3.1c0,0.6,0,1.1,0.1,1.6
			c0.1,0.5,0.2,0.9,0.5,1.3c0.2,0.4,0.5,0.6,0.8,0.8C644.5,962.1,644.9,962.2,645.4,962.2z"/>
		<path class="st1" d="M660.7,962.6c-0.4,0.3-1,0.6-1.6,0.8c-0.6,0.2-1.3,0.3-2,0.3c-0.8,0-1.5-0.1-2.1-0.4
			c-0.6-0.3-1.1-0.6-1.5-1.1c-0.4-0.5-0.7-1.1-0.8-1.7c-0.2-0.7-0.3-1.4-0.3-2.3c0-1.8,0.4-3.2,1.2-4.1c0.8-0.9,2-1.4,3.5-1.4
			c0.5,0,1,0.1,1.4,0.2c0.5,0.1,0.9,0.3,1.3,0.6c0.4,0.3,0.7,0.7,0.9,1.3c0.2,0.5,0.4,1.3,0.4,2.2c0,0.5,0,1-0.1,1.5h-6.8
			c0,0.6,0.1,1.2,0.2,1.7c0.1,0.5,0.3,0.9,0.6,1.2c0.3,0.3,0.6,0.6,1,0.8c0.4,0.2,1,0.3,1.6,0.3c0.5,0,1-0.1,1.4-0.3
			c0.5-0.2,0.8-0.4,1.1-0.6L660.7,962.6z M657.1,954.1c-0.8,0-1.5,0.2-2,0.7c-0.5,0.4-0.8,1.2-0.9,2.2h5.3c0-1.1-0.2-1.8-0.6-2.3
			C658.4,954.3,657.8,954.1,657.1,954.1z"/>
		<path class="st1" d="M668.4,960.5c0-0.4-0.1-0.8-0.4-1c-0.3-0.2-0.6-0.4-0.9-0.6c-0.4-0.2-0.8-0.3-1.2-0.5
			c-0.4-0.1-0.9-0.3-1.2-0.6c-0.4-0.2-0.7-0.5-0.9-0.9c-0.3-0.4-0.4-0.9-0.4-1.5c0-1,0.3-1.8,0.9-2.2c0.6-0.5,1.4-0.7,2.4-0.7
			c0.8,0,1.4,0.1,1.9,0.2c0.5,0.1,1,0.3,1.3,0.5l-0.4,1.4c-0.3-0.2-0.7-0.3-1.2-0.4c-0.5-0.1-0.9-0.2-1.5-0.2
			c-0.6,0-1.1,0.1-1.4,0.3c-0.3,0.2-0.4,0.6-0.4,1.1c0,0.4,0.1,0.7,0.4,0.9c0.3,0.2,0.6,0.4,0.9,0.6c0.4,0.2,0.8,0.3,1.2,0.5
			c0.4,0.2,0.9,0.4,1.2,0.6c0.4,0.3,0.7,0.6,0.9,1c0.3,0.4,0.4,0.9,0.4,1.5c0,0.5-0.1,0.9-0.2,1.3c-0.1,0.4-0.4,0.7-0.7,1
			c-0.3,0.3-0.7,0.5-1.2,0.7c-0.5,0.2-1,0.2-1.6,0.2c-0.8,0-1.5-0.1-2.1-0.2c-0.6-0.2-1-0.3-1.4-0.6l0.5-1.4
			c0.3,0.2,0.7,0.4,1.3,0.5c0.5,0.2,1.1,0.2,1.6,0.2c0.6,0,1.1-0.1,1.5-0.4C668.2,961.6,668.4,961.2,668.4,960.5z"/>
		<path class="st1" d="M672.7,949.6c0-0.3,0.1-0.6,0.3-0.8c0.2-0.2,0.5-0.3,0.8-0.3s0.6,0.1,0.9,0.3c0.2,0.2,0.4,0.5,0.4,0.8
			c0,0.3-0.1,0.6-0.4,0.8c-0.2,0.2-0.5,0.3-0.9,0.3s-0.6-0.1-0.8-0.3C672.8,950.2,672.7,949.9,672.7,949.6z M673,952.8h1.7v10.6H673
			V952.8z"/>
		<path class="st1" d="M686.5,963.9c0,1.4-0.4,2.4-1.1,3c-0.7,0.7-1.8,1-3.2,1c-0.8,0-1.5-0.1-2-0.2c-0.5-0.1-1-0.2-1.3-0.4l0.4-1.4
			c0.3,0.1,0.7,0.2,1.1,0.4c0.4,0.1,0.9,0.2,1.5,0.2c0.6,0,1.1-0.1,1.5-0.2c0.4-0.1,0.7-0.3,0.9-0.5c0.2-0.2,0.4-0.6,0.5-1
			c0.1-0.4,0.1-0.9,0.1-1.4v-1h-0.1c-0.3,0.4-0.6,0.7-1.1,0.9c-0.4,0.2-1,0.3-1.7,0.3c-1.4,0-2.5-0.4-3.1-1.3c-0.7-0.9-1-2.3-1-4.2
			c0-1.8,0.4-3.2,1.3-4.1c0.9-0.9,2.1-1.4,3.8-1.4c0.8,0,1.5,0.1,2.1,0.2c0.6,0.1,1.1,0.3,1.5,0.4V963.9z M682.2,962.2
			c0.7,0,1.3-0.2,1.7-0.5c0.4-0.4,0.7-0.9,0.9-1.7v-5.4c-0.6-0.3-1.3-0.4-2.2-0.4c-1,0-1.7,0.3-2.3,1c-0.6,0.6-0.8,1.7-0.8,3.1
			c0,0.6,0,1.1,0.1,1.6c0.1,0.5,0.3,0.9,0.5,1.3c0.2,0.4,0.5,0.6,0.8,0.8C681.3,962.1,681.7,962.2,682.2,962.2z"/>
		<path class="st1" d="M696.5,963.4v-6c0-1.1-0.2-1.9-0.5-2.5c-0.3-0.6-0.9-0.8-1.8-0.8c-0.7,0-1.4,0.2-1.9,0.6
			c-0.5,0.4-0.8,0.9-1,1.5v7.3h-1.7v-10.6h1.2l0.3,1.3h0.1c0.3-0.5,0.8-0.8,1.4-1.1c0.6-0.3,1.3-0.4,2-0.4c0.6,0,1.1,0.1,1.5,0.2
			c0.4,0.1,0.8,0.4,1.1,0.7c0.3,0.3,0.5,0.8,0.7,1.4c0.1,0.6,0.2,1.3,0.2,2.2v6.4H696.5z"/>
		<path class="st1" d="M709.1,962.6c-0.4,0.3-1,0.6-1.6,0.8c-0.6,0.2-1.3,0.3-2,0.3c-0.8,0-1.5-0.1-2.1-0.4
			c-0.6-0.3-1.1-0.6-1.5-1.1c-0.4-0.5-0.7-1.1-0.8-1.7c-0.2-0.7-0.3-1.4-0.3-2.3c0-1.8,0.4-3.2,1.2-4.1c0.8-0.9,2-1.4,3.5-1.4
			c0.5,0,1,0.1,1.4,0.2c0.5,0.1,0.9,0.3,1.3,0.6c0.4,0.3,0.7,0.7,0.9,1.3c0.2,0.5,0.4,1.3,0.4,2.2c0,0.5,0,1-0.1,1.5h-6.8
			c0,0.6,0.1,1.2,0.2,1.7c0.1,0.5,0.3,0.9,0.6,1.2c0.3,0.3,0.6,0.6,1,0.8c0.4,0.2,1,0.3,1.6,0.3c0.5,0,1-0.1,1.4-0.3
			c0.5-0.2,0.8-0.4,1.1-0.6L709.1,962.6z M705.4,954.1c-0.8,0-1.5,0.2-2,0.7c-0.5,0.4-0.8,1.2-0.9,2.2h5.3c0-1.1-0.2-1.8-0.6-2.3
			C706.8,954.3,706.2,954.1,705.4,954.1z"/>
		<path class="st1" d="M720.3,959.8c0,0.7,0,1.4,0,2c0,0.6,0.1,1.2,0.2,1.7h-1.1l-0.4-1.5h-0.1c-0.3,0.5-0.7,0.9-1.2,1.2
			c-0.5,0.3-1.2,0.5-1.9,0.5c-1.4,0-2.5-0.4-3.1-1.3c-0.7-0.9-1-2.3-1-4.2c0-1.8,0.4-3.2,1.3-4.1c0.9-0.9,2-1.4,3.5-1.4
			c0.5,0,0.9,0,1.2,0.1c0.3,0.1,0.6,0.1,1,0.3v-4.4h1.7V959.8z M716,962.2c0.7,0,1.3-0.2,1.7-0.6c0.4-0.4,0.7-0.9,0.9-1.7v-5.3
			c-0.3-0.2-0.5-0.3-0.9-0.4c-0.3-0.1-0.8-0.1-1.3-0.1c-1,0-1.7,0.3-2.3,1c-0.6,0.6-0.8,1.7-0.8,3.1c0,0.6,0,1.1,0.1,1.6
			c0.1,0.5,0.2,0.9,0.5,1.3c0.2,0.4,0.5,0.6,0.8,0.8C715.1,962.1,715.5,962.2,716,962.2z"/>
		<path class="st1" d="M729.2,948.6h1.7v5.3h0.1c0.3-0.4,0.7-0.7,1.2-1c0.5-0.2,1-0.3,1.6-0.3c1.4,0,2.4,0.4,3.1,1.3
			c0.7,0.9,1,2.2,1,4.1c0,1.9-0.5,3.3-1.4,4.2c-0.9,1-2.2,1.4-3.8,1.4c-0.8,0-1.5-0.1-2.2-0.3c-0.6-0.2-1.1-0.4-1.5-0.6V948.6z
			 M733.5,954.1c-0.7,0-1.3,0.2-1.7,0.6c-0.4,0.4-0.8,1-1,1.7v5.3c0.3,0.2,0.6,0.3,1,0.3c0.4,0.1,0.8,0.1,1.2,0.1c1,0,1.7-0.3,2.3-1
			c0.6-0.7,0.9-1.7,0.9-3.2c0-0.6,0-1.1-0.1-1.5c-0.1-0.5-0.3-0.9-0.5-1.2c-0.2-0.3-0.5-0.6-0.8-0.8
			C734.4,954.1,734,954.1,733.5,954.1z"/>
		<path class="st1" d="M743.5,959.7l0.6,2h0.1l0.5-2.1l2.1-6.9h1.7l-3.1,9.5c-0.2,0.7-0.5,1.4-0.7,2c-0.2,0.6-0.5,1.2-0.8,1.7
			c-0.3,0.5-0.6,0.9-1,1.2c-0.4,0.3-0.8,0.5-1.2,0.5c-0.5,0-0.9-0.1-1.2-0.2l0.3-1.5c0.2,0.1,0.4,0.1,0.5,0.1c0.4,0,0.8-0.2,1.1-0.6
			c0.4-0.4,0.7-1.1,0.9-2.2l-4.3-10.6h2L743.5,959.7z"/>
	</g>
</g>
<path class="st6" d="M684.5,310.4c-3.1,7.9-1.3,17.6,4.6,23.8c5.9,6.2,15.4,8.5,23.5,5.8c3.7-1.3,7.1-3.6,9.1-6.9
	c2-3.3,2.2-7.8,0.2-11.1c-1.8-2.9-5.1-4.4-8.2-5.7c-8.1-3.4-16.5-5.7-25.2-7.1c-1.4-0.2-3.2-0.3-3.9,1"/>
<path class="st5" d="M749.1,361.6c-0.1-1.1,0-2.3-0.2-3.4c-0.8-5.5-2.8-10.6-4.8-15.7c-2.6-6.8-5.8-13.1-10.8-18.4
	c-1.6-1.7-3.3-3.4-5.1-4.7c-1.9-1.4-4.1-2.4-6.2-3.4c-3.6-1.8-7.1-4.1-10.9-5.3c-5.6-1.8-11.4-2.9-17.1-4.2
	c-2.1-0.4-4.3-0.5-6.4-0.4c-3.5,0.2-6.9,0.8-10.4,1.1c-3,0.2-6.1,0-9.1,0.4c-4,0.5-8.1,1.4-12.1,2.2c-1.5,0.3-2.9,0.7-4.2,1.4
	c-0.6,0.3-1.3,1.5-1.1,2.1c0.1,0.6,1.2,1.1,2,1.3c1,0.3,2.1,0.2,3.2,0.3c5.4,0.3,9.8,2.7,12.6,7c3.6,5.5,6.2,11.6,9.8,17.1
	c2.1,3.3,5.1,6.2,8.1,8.7c2.7,2.2,6.1,3.6,9.2,5.4c4.2,2.5,8.6,4.2,13.4,4.3c5.1,0.1,10.3-0.4,15.4-0.4c4.4,0,8.7,1.2,11.6,4.3
	c4.5,4.8,6.8,10.8,6.9,17.5c0,0.8,0.7,2,1.3,2.3c1.1,0.4,1.9-0.4,2-1.7c0.4-2.4,0.7-4.9,1.1-7.3c0.6-3.5,1.3-6.9,2-10.3
	C749.2,361.6,749.1,361.6,749.1,361.6z M717.1,335.7c-6.6,4.3-13.4,3.8-20.3,0.9c-1.7-0.7-3.5-1.5-5.1-2.5c-1.4-0.9-2.9-2.1-3.9-3.4
	c-2.8-3.7-4.1-7.9-3.6-12.6c0.2-2.2,0.7-4.3,1.1-6.7c4.8-0.4,9,1.7,13.2,3.1c-0.8,2.8-1.4,5.3,0.5,7.9c0.9,1.2,1.3,2.9,2.1,4.2
	c0.8,1.4,2.2,1.5,3.5,0.7c1.8-1,3.5-2,4.2-4.3c0.5-1.7,1.9-3.1,3.2-5.3c2.4,1,5.3,2,8.1,3.5c0.8,0.4,1.2,1.9,1.7,2.9
	c0.1,0.2,0,0.5,0,0.7C722.8,329.4,721.1,333.1,717.1,335.7z"/>
<path class="st6" d="M940.5,310.4c3.1,7.9,1.3,17.6-4.6,23.8c-5.9,6.2-15.4,8.5-23.5,5.8c-3.7-1.3-7.1-3.6-9.1-6.9
	c-2-3.3-2.2-7.8-0.2-11.1c1.8-2.9,5.1-4.4,8.2-5.7c8.1-3.4,16.5-5.7,25.2-7.1c1.4-0.2,3.2-0.3,3.9,1"/>
<path class="st5" d="M874.5,361.6c0.1-1.1,0-2.3,0.2-3.4c0.8-5.5,2.8-10.6,4.8-15.7c2.6-6.8,5.8-13.1,10.8-18.4
	c1.6-1.7,3.3-3.4,5.1-4.7c1.9-1.4,4.1-2.4,6.2-3.4c3.6-1.8,7.1-4.1,10.9-5.3c5.6-1.8,11.4-2.9,17.1-4.2c2.1-0.4,4.3-0.5,6.4-0.4
	c3.5,0.2,6.9,0.8,10.4,1.1c3,0.2,6.1,0,9.1,0.4c4,0.5,8.1,1.4,12.1,2.2c1.5,0.3,2.9,0.7,4.2,1.4c0.6,0.3,1.3,1.5,1.1,2.1
	c-0.1,0.6-1.2,1.1-2,1.3c-1,0.3-2.1,0.2-3.2,0.3c-5.4,0.3-9.8,2.7-12.6,7c-3.6,5.5-6.2,11.6-9.8,17.1c-2.1,3.3-5.1,6.2-8.1,8.7
	c-2.7,2.2-6.1,3.6-9.2,5.4c-4.2,2.5-8.6,4.2-13.4,4.3c-5.1,0.1-10.3-0.4-15.4-0.4c-4.4,0-8.7,1.2-11.6,4.3
	c-4.5,4.8-6.8,10.8-6.9,17.5c0,0.8-0.7,2-1.3,2.3c-1.1,0.4-1.9-0.4-2-1.7c-0.4-2.4-0.7-4.9-1.1-7.3c-0.6-3.5-1.3-6.9-2-10.3
	C874.4,361.6,874.5,361.6,874.5,361.6z M903.5,321.1c-0.8,0.4-1.2,1.9-1.7,2.9c-0.1,0.2,0,0.5,0,0.7c-0.9,4.7,0.7,8.4,4.7,11
	c6.6,4.3,13.4,3.8,20.3,0.9c1.7-0.7,3.5-1.5,5.1-2.5c1.4-0.9,2.9-2.1,3.9-3.4c2.8-3.7,4.1-7.9,3.6-12.6c-0.2-2.2-0.7-4.3-1.1-6.7
	c-4.8-0.4-9,1.7-13.2,3.1c0.8,2.8,1.4,5.3-0.5,7.9c-0.9,1.2-1.3,2.9-2.1,4.2c-0.8,1.4-2.2,1.5-3.5,0.7c-1.8-1-3.5-2-4.2-4.3
	c-0.6-1.7-1.9-3.1-3.2-5.3C909.1,318.6,906.2,319.7,903.5,321.1z"/>
<pattern  id="SVGID_2_" xlink:href="#Unnamed_Pattern_8" patternTransform="matrix(1.1007 0 0 1.023 3266.8008 -1369.6379)">
</pattern>
<rect x="58.3" y="3.3" class="st7" width="1544.6" height="999.3"/>
</svg>
